{"glyphs":{"0":{"ha":898,"x_min":37,"x_max":866,"o":"m 462 949 q 753 808 636 949 q 866 456 866 670 q 732 94 866 234 q 462 -26 620 -26 q 258 29 353 -26 q 84 221 144 96 q 37 462 37 321 q 167 823 37 689 q 301 916 224 883 q 462 949 378 949 m 448 904 l 445 463 l 448 100 l 448 20 q 667 94 575 18 q 782 251 742 157 q 821 461 821 345 q 715 789 821 667 q 604 874 667 843 q 479 905 541 905 q 448 904 469 905 z "},"1":{"ha":898,"x_min":136,"x_max":678,"o":"m 678 941 l 673 553 l 678 22 l 678 0 l 287 0 l 287 22 l 292 562 l 294 761 l 294 789 l 280 785 l 182 755 q 156 749 167 749 q 136 772 136 749 q 146 795 136 789 q 208 814 157 802 l 378 859 l 441 876 l 678 941 z "},"2":{"ha":898,"x_min":18,"x_max":852,"o":"m 500 43 l 526 43 q 790 54 710 44 q 831 59 817 59 q 852 36 852 59 q 829 3 852 10 q 788 0 818 0 l 18 0 q 221 254 139 145 q 393 495 303 362 q 530 713 491 642 q 570 821 570 785 q 538 882 570 862 q 444 903 507 903 q 315 882 381 903 q 203 826 249 861 q 133 746 159 793 q 107 652 107 699 q 116 599 107 621 q 153 535 124 577 q 159 516 159 526 q 151 498 159 506 q 134 490 143 490 q 83 539 106 490 q 59 644 59 589 q 105 788 59 720 q 253 908 157 866 q 473 949 348 949 q 707 902 610 949 q 819 800 779 867 q 852 677 852 745 q 832 569 852 623 q 768 437 813 514 q 581 155 688 302 l 500 43 z "},"3":{"ha":898,"x_min":14,"x_max":833,"o":"m 410 903 q 161 810 246 905 q 114 779 132 779 q 96 789 104 779 q 88 812 88 799 q 143 874 88 838 q 444 949 255 949 q 680 897 586 949 q 759 821 731 868 q 787 717 787 774 q 710 566 787 621 q 534 502 639 514 q 463 492 478 496 l 575 477 q 772 396 701 461 q 833 254 833 340 q 775 104 833 172 q 404 -26 663 -26 q 90 52 206 -26 q 14 148 14 103 q 22 167 14 159 q 42 175 31 175 q 64 168 57 175 q 89 131 72 160 q 168 63 112 89 q 380 18 265 18 l 410 19 l 410 471 l 308 471 q 266 475 274 471 q 257 494 257 479 q 266 514 257 510 q 309 518 274 518 l 410 518 l 410 903 z "},"4":{"ha":898,"x_min":27,"x_max":884,"o":"m 745 187 l 745 0 l 363 0 l 365 95 l 366 171 l 366 184 l 347 184 l 282 185 l 131 183 l 91 182 q 41 189 55 182 q 27 212 27 195 q 40 241 27 224 q 112 320 54 258 l 746 999 l 745 950 l 743 722 l 742 444 l 744 234 q 758 233 752 233 q 770 235 761 233 l 843 238 l 863 239 q 884 214 884 239 q 867 189 884 192 q 817 187 863 188 l 745 187 m 366 231 l 366 525 l 94 233 q 224 230 160 230 l 366 231 z "},"5":{"ha":898,"x_min":25,"x_max":838,"o":"m 418 674 q 368 676 389 676 q 184 625 245 676 q 163 613 170 613 q 149 621 157 613 q 141 636 141 629 q 144 648 141 640 l 153 671 l 165 705 q 211 840 184 756 l 239 924 l 444 922 l 534 921 l 686 924 l 715 925 q 741 909 741 925 q 729 878 741 890 q 701 865 718 865 q 669 867 688 865 q 282 877 511 876 l 269 877 l 210 701 q 370 721 273 721 q 583 690 485 721 q 784 548 719 646 q 838 358 838 466 q 783 163 838 252 q 414 -26 667 -26 q 128 66 242 -26 q 25 294 25 151 q 71 452 25 385 q 113 484 93 484 q 133 473 124 484 q 142 452 142 463 q 138 438 142 444 q 109 405 134 432 q 70 288 70 364 q 117 141 70 205 q 256 43 162 79 q 389 17 326 17 q 418 19 395 17 l 418 674 z "},"6":{"ha":898,"x_min":39,"x_max":868,"o":"m 451 899 l 448 420 l 451 19 q 481 18 471 18 q 605 44 539 18 q 718 115 670 71 q 821 347 821 210 q 733 534 821 474 q 622 572 680 572 q 534 549 576 572 q 503 536 510 536 q 486 555 486 536 q 529 597 486 578 q 623 616 572 616 q 788 549 718 616 q 868 346 868 473 q 732 67 868 179 q 466 -26 617 -26 q 211 58 321 -26 q 39 444 39 187 q 157 783 39 646 q 332 912 229 868 q 510 949 419 949 q 712 886 627 949 q 774 801 774 840 q 765 781 774 789 q 743 772 756 772 q 709 800 724 772 q 635 879 680 855 q 507 906 585 906 q 451 899 482 906 z "},"7":{"ha":898,"x_min":33,"x_max":865,"o":"m 865 926 l 722 490 l 564 0 l 94 0 l 117 48 l 250 319 l 519 882 l 357 882 q 83 859 144 881 q 53 852 64 852 q 33 891 33 852 q 62 928 33 928 l 163 925 l 231 925 l 544 926 l 865 926 z "},"8":{"ha":898,"x_min":45,"x_max":853,"o":"m 684 573 q 775 503 745 533 q 853 312 853 425 q 785 125 853 210 q 598 4 722 45 q 414 -26 508 -26 q 126 63 239 -26 q 67 136 90 92 q 45 222 45 179 q 77 324 45 281 q 179 404 109 367 q 69 637 69 511 q 181 860 69 775 q 475 949 299 949 q 717 884 627 949 q 789 739 789 831 q 764 648 789 686 q 684 573 740 610 m 635 595 q 713 659 690 627 q 736 736 736 691 q 670 857 736 815 q 469 905 592 905 q 327 883 380 905 q 274 827 274 862 q 390 714 274 782 q 567 627 447 682 l 635 595 m 212 371 q 146 330 167 348 q 96 223 96 286 q 116 147 96 184 q 172 86 137 110 q 412 18 272 18 q 558 41 498 18 q 618 97 618 64 q 557 171 618 133 q 370 271 519 195 q 212 371 308 302 z "},"9":{"ha":898,"x_min":31,"x_max":860,"o":"m 448 24 l 450 503 l 448 905 q 417 906 426 906 q 294 879 359 906 q 181 809 229 852 q 77 576 77 713 q 166 389 77 450 q 277 351 220 351 q 364 374 322 351 q 395 387 388 387 q 412 368 412 387 q 369 326 412 345 q 275 307 326 307 q 111 374 181 307 q 31 578 31 451 q 167 856 31 745 q 433 949 281 949 q 688 866 577 949 q 860 479 860 736 q 742 140 860 277 q 566 12 669 55 q 389 -26 479 -26 q 186 37 271 -26 q 124 122 124 84 q 133 142 124 134 q 155 151 142 151 q 189 123 174 151 q 263 45 218 68 q 391 18 314 18 q 448 24 416 18 z "}," ":{"ha":347,"x_min":0,"x_max":0,"o":""},"!":{"ha":533,"x_min":60,"x_max":473,"o":"m 281 374 l 239 374 q 210 477 226 444 q 111 635 193 510 q 60 781 60 711 q 113 903 60 860 q 268 954 174 954 q 424 897 365 954 q 473 781 473 851 q 460 707 473 741 q 413 622 447 673 q 323 480 348 526 q 281 374 299 435 m 260 280 q 409 237 351 280 q 467 128 467 195 q 413 20 467 61 q 271 -21 359 -21 q 123 21 180 -21 q 65 128 65 62 q 121 239 65 197 q 260 280 174 279 z "},"\"":{"ha":537,"x_min":60,"x_max":477,"o":"m 88 553 l 60 926 l 241 926 l 213 553 l 88 553 m 324 553 l 296 926 l 477 926 l 449 553 l 324 553 z "},"#":{"ha":898,"x_min":39,"x_max":859,"o":"m 534 926 l 529 878 l 517 781 l 505 668 l 504 654 l 656 654 l 658 673 l 669 793 l 680 911 q 706 935 684 935 q 730 913 730 935 q 728 883 730 901 l 705 686 l 703 670 l 702 654 l 816 654 q 850 649 841 654 q 859 632 859 645 q 811 605 859 605 l 696 605 l 694 584 l 692 562 l 682 469 l 673 386 l 669 345 l 783 345 q 818 341 808 345 q 827 323 827 336 q 779 296 827 296 l 664 296 l 650 153 l 638 33 q 631 -2 635 5 q 612 -9 627 -9 q 587 14 587 -9 q 591 51 587 22 l 616 281 l 618 296 l 467 296 l 464 271 l 437 0 l 164 0 l 170 52 l 182 153 l 196 281 l 198 296 l 87 296 q 39 323 39 296 q 48 341 39 336 q 83 345 58 345 l 203 345 l 205 368 l 208 391 l 231 605 l 120 605 q 72 632 72 605 q 81 649 72 645 q 115 654 90 654 l 235 654 l 237 673 l 249 789 l 258 890 l 262 926 l 534 926 m 471 345 l 623 345 l 637 476 l 646 555 l 648 580 l 651 605 l 498 605 l 496 576 l 492 548 l 473 369 l 471 345 z "},"$":{"ha":898,"x_min":93,"x_max":796,"o":"m 632 858 l 543 647 l 557 631 q 724 431 693 472 q 796 233 796 333 q 773 140 796 186 q 711 64 751 94 q 439 -20 608 -20 q 275 3 348 -20 l 252 -52 q 236 -84 241 -78 q 220 -90 231 -90 q 201 -84 209 -90 q 194 -70 194 -78 q 202 -43 194 -64 l 208 -29 l 227 18 q 93 141 93 79 q 101 161 93 153 q 120 169 109 169 q 151 145 134 169 q 249 64 193 87 l 345 287 q 203 461 250 399 q 111 681 111 587 q 214 876 111 801 q 454 943 307 943 q 606 920 531 943 l 632 984 q 653 1004 640 1004 q 672 998 664 1004 q 681 982 681 991 q 652 903 681 971 q 758 820 758 850 q 749 802 758 810 q 731 793 740 793 q 680 827 718 793 q 632 858 654 849 m 590 878 q 486 896 529 896 q 436 884 452 896 q 419 848 419 872 q 511 686 419 810 l 590 878 m 378 248 l 293 47 q 420 25 355 25 q 473 37 454 25 q 492 72 492 50 q 460 143 492 94 q 378 248 428 193 z "},"%":{"ha":1067,"x_min":33,"x_max":1040,"o":"m 260 939 q 404 884 342 939 q 484 685 484 815 q 416 500 484 570 q 259 433 352 433 q 94 511 160 433 q 33 688 33 583 q 97 867 33 800 q 260 939 164 937 m 249 899 l 249 473 l 260 473 q 380 515 332 473 q 444 689 444 573 q 397 840 444 783 q 269 899 347 899 q 249 899 262 899 m 734 808 l 378 94 l 362 61 q 345 24 348 34 q 309 -16 328 -16 q 294 -10 300 -16 q 287 5 287 -3 q 307 50 287 12 l 322 82 l 339 115 l 715 871 q 748 933 742 924 q 765 942 754 942 q 779 936 772 942 q 785 921 785 929 q 734 808 785 911 m 813 491 q 974 422 908 491 q 1040 233 1040 353 q 960 41 1040 111 q 818 -13 899 -13 q 723 8 769 -13 q 646 65 677 29 q 589 241 589 133 q 658 423 589 353 q 813 491 724 490 m 805 452 l 805 28 q 823 27 817 27 q 943 77 897 27 q 1000 241 1000 136 q 951 391 1000 336 q 892 435 928 418 q 823 452 857 452 q 805 452 817 452 z "},"&":{"ha":1060,"x_min":33,"x_max":1037,"o":"m 783 309 q 1037 0 890 155 l 562 0 q 496 64 528 28 q 280 -16 399 -16 q 169 6 222 -16 q 84 63 116 27 q 33 209 33 123 q 77 348 33 287 q 218 463 121 409 q 156 597 172 549 q 139 692 139 646 q 216 865 139 798 q 476 949 311 949 q 685 886 611 949 q 735 775 735 844 q 591 595 735 667 q 755 345 629 527 q 993 499 911 499 q 1027 469 1027 499 q 1019 448 1027 453 q 977 440 1010 444 q 901 408 943 437 q 783 309 858 378 m 465 98 q 359 235 401 175 q 239 424 318 294 q 115 323 151 371 q 79 212 79 276 q 125 89 79 136 q 193 45 151 61 q 281 28 236 28 q 465 98 380 28 m 566 632 q 689 774 689 689 q 632 869 689 836 q 473 903 576 903 q 439 901 454 903 q 566 632 466 798 z "},"'":{"ha":301,"x_min":60,"x_max":241,"o":"m 88 553 l 60 926 l 241 926 l 213 553 l 88 553 z "},"(":{"ha":507,"x_min":69,"x_max":414,"o":"m 382 955 q 414 933 414 955 q 410 920 414 924 q 381 904 405 916 q 344 867 360 894 q 323 808 328 840 q 312 647 317 771 q 308 405 308 523 q 334 -66 308 -2 q 404 -132 353 -112 q 414 -149 414 -136 q 382 -172 414 -172 q 267 -142 326 -172 q 167 -63 208 -113 q 79 142 97 20 q 69 423 69 212 q 75 602 69 541 q 95 713 80 663 q 231 905 132 836 q 382 955 303 954 z "},")":{"ha":507,"x_min":93,"x_max":438,"o":"m 125 955 q 240 925 182 955 q 340 846 299 896 q 428 642 410 763 q 438 360 438 571 q 433 181 438 242 q 412 70 427 121 q 277 -121 376 -52 q 125 -172 204 -172 q 93 -150 93 -172 q 98 -137 93 -141 q 126 -121 102 -133 q 163 -84 147 -111 q 184 -25 180 -57 q 195 136 191 12 q 199 378 199 260 q 173 850 199 785 q 103 915 154 895 q 94 932 94 919 q 125 955 94 955 z "},"*":{"ha":548,"x_min":37,"x_max":515,"o":"m 225 764 l 216 926 l 336 926 l 327 764 l 478 823 l 515 708 l 359 667 l 461 541 l 364 471 l 276 607 l 189 471 l 91 541 l 194 667 l 37 708 l 74 823 l 225 764 z "},"+":{"ha":898,"x_min":66,"x_max":831,"o":"m 604 437 l 603 397 l 604 308 l 607 190 l 294 190 l 297 308 l 298 398 l 298 437 l 237 437 l 205 437 l 169 437 l 110 436 q 66 463 66 436 q 110 490 66 490 l 170 489 l 205 490 l 298 490 l 298 530 l 297 618 l 294 736 l 607 736 l 604 618 l 603 528 l 604 490 l 695 490 l 744 489 l 793 490 q 831 463 831 490 q 793 436 831 436 l 734 437 l 695 437 l 665 437 l 604 437 z "},",":{"ha":523,"x_min":52,"x_max":472,"o":"m 433 66 q 351 1 399 22 q 237 -21 302 -21 q 115 11 166 -21 q 52 121 52 50 q 92 220 52 178 q 260 285 156 285 q 415 231 357 285 q 472 87 472 178 q 448 -19 472 30 q 379 -98 423 -68 q 202 -142 315 -142 q 152 -121 152 -142 q 177 -104 152 -104 l 199 -106 l 212 -106 q 331 -85 283 -106 q 418 6 392 -58 q 433 66 425 22 z "},"-":{"ha":486,"x_min":0,"x_max":486,"o":"m 340 357 l 242 357 l 44 355 q 0 379 0 355 q 43 406 0 406 l 91 404 l 212 401 l 389 406 l 441 406 q 486 380 486 406 q 441 355 486 355 l 392 357 l 340 357 z "},".":{"ha":523,"x_min":62,"x_max":462,"o":"m 262 281 q 407 241 352 281 q 462 134 462 201 q 406 22 462 65 q 262 -21 351 -21 q 94 41 150 -21 q 62 127 62 78 q 116 238 62 196 q 262 281 170 279 z "},"/":{"ha":648,"x_min":41,"x_max":605,"o":"m 574 954 q 596 947 587 955 q 605 929 605 939 q 590 889 605 922 q 484 665 574 856 l 210 87 l 136 -71 q 110 -127 115 -115 q 68 -171 92 -171 q 50 -163 58 -171 q 41 -146 41 -156 q 58 -103 41 -136 l 84 -47 l 298 402 l 431 685 l 494 816 q 553 941 545 928 q 574 954 560 954 z "},":":{"ha":523,"x_min":62,"x_max":462,"o":"m 262 281 q 407 241 352 281 q 462 134 462 201 q 406 22 462 65 q 262 -21 351 -21 q 94 41 150 -21 q 62 127 62 78 q 116 238 62 196 q 262 281 170 279 m 262 669 q 407 629 352 669 q 462 522 462 589 q 406 411 462 454 q 262 368 351 368 q 94 430 150 368 q 62 515 62 467 q 116 626 62 585 q 262 669 170 668 z "},";":{"ha":523,"x_min":51,"x_max":471,"o":"m 251 669 q 396 629 341 669 q 451 522 451 589 q 395 411 451 454 q 251 368 340 368 q 83 430 139 368 q 51 515 51 467 q 105 626 51 585 q 251 669 159 668 m 433 66 q 350 1 399 22 q 236 -21 301 -21 q 114 11 165 -21 q 51 121 51 50 q 92 220 51 178 q 260 285 155 285 q 414 231 356 285 q 471 87 471 178 q 447 -19 471 30 q 379 -98 422 -68 q 202 -142 314 -142 q 152 -121 152 -142 q 177 -104 152 -104 l 199 -106 l 212 -106 q 330 -85 283 -106 q 418 6 391 -58 q 433 66 425 22 z "},"<":{"ha":694,"x_min":50,"x_max":644,"o":"m 644 901 l 644 788 l 356 612 l 644 413 l 644 112 l 50 524 l 50 538 l 644 901 z "},"=":{"ha":898,"x_min":65,"x_max":833,"o":"m 450 344 l 193 340 l 159 340 l 108 340 q 65 366 65 340 q 108 394 65 394 l 156 393 l 446 390 l 743 393 l 791 394 q 833 366 833 394 q 791 340 833 340 l 740 340 l 705 340 l 450 344 m 450 529 l 228 527 l 193 526 l 108 526 q 65 551 65 526 q 108 579 65 579 l 156 578 l 446 575 l 743 578 l 791 579 q 833 551 833 579 q 791 526 833 526 l 705 526 l 671 527 l 450 529 z "},">":{"ha":694,"x_min":51,"x_max":644,"o":"m 51 112 l 51 225 l 338 401 l 51 600 l 51 901 l 644 490 l 644 475 l 51 112 z "},"?":{"ha":768,"x_min":50,"x_max":722,"o":"m 376 425 l 376 363 l 330 363 l 332 906 q 165 842 235 901 q 107 734 107 794 q 110 709 107 722 q 114 682 114 690 q 106 665 114 672 q 86 658 98 658 q 60 674 71 658 q 50 715 50 690 q 81 813 50 764 q 165 897 113 862 q 386 954 251 954 q 652 862 559 954 q 722 687 722 792 q 665 530 722 596 q 557 453 620 475 q 376 425 494 430 m 351 280 q 495 238 439 280 q 551 129 551 196 q 507 28 551 68 q 353 -21 451 -21 q 207 20 264 -21 q 151 126 151 61 q 201 234 151 193 q 351 280 256 279 z "},"@":{"ha":1028,"x_min":55,"x_max":973,"o":"m 747 279 q 834 307 795 279 q 910 401 883 342 q 937 532 937 460 q 815 806 937 699 q 686 880 761 854 q 532 907 611 907 q 225 785 353 907 q 92 466 92 657 q 212 155 92 283 q 556 18 340 18 q 711 36 642 18 q 873 100 781 54 l 888 68 q 555 -15 723 -15 q 189 127 326 -15 q 92 277 127 191 q 55 467 55 368 q 124 718 55 604 q 316 890 193 830 q 534 941 420 941 q 758 886 652 941 q 925 724 867 830 q 973 534 973 635 q 906 329 973 412 q 741 246 840 246 l 525 246 l 532 289 q 393 238 466 238 q 262 290 315 238 q 209 420 209 342 q 282 593 209 523 q 466 671 363 671 q 587 627 535 671 l 591 661 l 808 661 l 777 469 l 747 279 m 581 585 q 491 635 528 635 q 471 624 476 635 q 459 574 465 614 l 422 338 l 420 325 q 416 295 416 300 q 421 281 416 286 q 435 276 426 276 q 541 336 470 276 l 581 585 z "},"A":{"ha":1084,"x_min":-9,"x_max":1102,"o":"m 559 981 l 1102 0 l 632 0 l 568 124 l 340 124 l 139 125 l 105 125 l 60 43 q 33 -4 41 5 q 14 -13 25 -13 q -9 7 -9 -13 q 4 40 -9 16 q 96 199 17 64 l 507 890 l 559 981 m 349 537 l 230 337 l 135 172 l 338 170 l 543 172 l 349 537 z "},"B":{"ha":995,"x_min":79,"x_max":964,"o":"m 831 403 q 904 326 880 368 q 928 236 928 284 q 867 92 928 158 q 645 4 793 11 q 414 0 563 0 l 79 0 l 79 32 l 81 163 l 83 422 l 80 705 l 79 926 l 442 926 q 630 921 578 926 q 735 900 681 917 q 843 846 793 882 q 921 769 893 811 q 964 622 964 703 q 928 490 964 549 q 831 403 892 431 m 776 385 q 722 379 747 379 q 635 397 668 379 q 602 443 602 414 q 613 458 602 458 q 635 452 621 458 q 737 428 682 428 q 888 507 837 428 q 920 620 920 556 q 845 786 920 717 q 717 859 791 836 q 531 881 643 881 l 494 881 l 490 474 l 494 45 l 555 44 q 712 55 656 44 q 806 94 768 66 q 883 237 883 151 q 856 318 883 281 q 776 385 829 355 z "},"C":{"ha":981,"x_min":37,"x_max":975,"o":"m 475 907 l 472 427 l 475 18 q 534 14 511 14 q 670 37 600 14 q 793 102 740 61 q 865 172 828 128 q 924 258 902 216 q 952 283 937 283 q 975 264 975 283 q 941 195 975 243 q 867 108 907 146 q 663 -8 781 24 q 528 -28 593 -28 q 337 13 433 -28 q 104 217 184 77 q 37 463 37 333 q 106 714 37 596 q 315 906 180 840 q 528 954 414 954 q 865 821 723 954 q 933 730 933 758 q 926 717 933 723 q 911 711 920 711 q 879 737 898 711 q 725 865 821 818 q 523 912 629 912 q 475 907 498 912 z "},"D":{"ha":1043,"x_min":79,"x_max":1011,"o":"m 79 926 l 435 926 q 646 912 575 926 q 927 726 820 879 q 1011 462 1011 606 q 924 194 1011 315 q 652 13 820 48 q 574 2 608 4 q 425 0 541 0 l 81 0 l 83 448 l 79 926 m 493 882 l 490 337 l 494 43 q 624 51 585 44 q 715 79 664 57 q 906 248 837 132 q 966 463 966 347 q 895 695 966 589 q 519 883 768 883 l 493 882 z "},"E":{"ha":930,"x_min":79,"x_max":927,"o":"m 491 629 q 490 553 490 597 l 490 512 l 494 44 l 724 47 l 887 49 q 927 24 927 49 q 907 1 927 4 q 850 0 902 1 l 80 0 l 81 35 l 81 262 l 84 505 l 79 926 l 798 926 q 852 924 846 926 q 868 901 868 920 q 838 877 868 877 l 833 877 l 494 882 l 491 671 l 565 671 l 802 675 l 854 675 q 892 671 883 675 q 901 652 901 666 q 857 625 901 625 l 803 627 l 491 629 z "},"F":{"ha":906,"x_min":79,"x_max":901,"o":"m 491 629 l 490 465 l 494 31 l 494 0 l 79 0 l 84 504 l 79 926 l 798 926 q 852 924 846 926 q 868 901 868 920 q 838 877 868 877 l 833 877 l 494 882 l 491 671 l 565 671 l 802 675 l 854 675 q 892 671 883 675 q 901 652 901 666 q 857 625 901 625 l 803 627 l 491 629 z "},"G":{"ha":1053,"x_min":37,"x_max":1021,"o":"m 1021 467 q 892 131 1017 266 q 727 14 823 56 q 528 -28 631 -28 q 351 6 438 -28 q 197 101 264 40 q 70 290 111 180 q 37 465 37 378 q 137 758 37 627 q 309 902 205 850 q 527 954 413 954 q 871 816 727 954 q 936 728 936 754 q 929 713 936 720 q 911 707 922 707 q 878 731 896 707 q 528 912 742 912 q 476 909 503 912 l 473 427 l 476 18 q 527 14 501 14 q 675 39 604 14 q 937 276 857 104 q 977 424 970 349 l 623 424 q 566 429 576 425 q 557 446 557 432 q 589 468 557 468 l 630 467 l 1021 467 z "},"H":{"ha":1054,"x_min":79,"x_max":989,"o":"m 939 607 l 937 798 l 936 882 q 941 927 936 916 q 964 939 947 939 q 989 897 989 939 l 989 851 l 987 701 l 985 458 l 987 206 l 989 29 q 984 -4 989 5 q 964 -13 979 -13 q 942 -3 948 -13 q 937 31 937 6 l 937 89 l 939 429 l 939 555 l 913 556 l 781 559 l 490 555 l 491 368 l 495 0 l 79 0 l 83 588 l 81 743 l 81 886 l 79 926 l 495 926 l 494 890 l 491 607 q 711 602 560 602 q 939 607 849 602 z "},"I":{"ha":572,"x_min":79,"x_max":494,"o":"m 494 926 l 494 878 l 490 507 l 493 0 l 79 0 l 83 554 l 79 892 l 79 926 l 494 926 z "},"J":{"ha":886,"x_min":14,"x_max":808,"o":"m 804 926 l 802 765 l 806 518 l 808 354 q 711 86 808 185 q 572 0 655 28 q 372 -28 488 -28 q 109 41 201 -28 q 41 116 68 71 q 14 199 14 161 q 42 229 14 229 q 75 187 69 229 q 184 53 87 100 q 350 15 261 15 q 392 17 363 15 l 393 45 l 394 230 l 397 724 l 392 926 l 804 926 z "},"K":{"ha":1018,"x_min":79,"x_max":1022,"o":"m 652 731 l 753 526 q 905 227 840 350 q 1002 54 970 103 q 1022 13 1022 23 q 987 -13 1022 -13 q 964 -3 971 -13 q 928 66 957 7 l 886 153 l 820 291 l 758 418 l 713 511 l 614 711 l 490 637 l 490 536 l 490 469 l 493 34 l 494 0 l 79 0 l 83 579 l 81 744 l 79 888 l 79 926 l 494 926 l 491 817 l 490 686 l 606 755 q 781 865 705 813 q 880 927 859 916 q 921 939 902 939 q 957 916 957 939 q 947 897 957 905 q 901 872 937 889 q 712 766 859 852 l 652 731 z "},"L":{"ha":930,"x_min":79,"x_max":926,"o":"m 496 926 l 493 784 l 490 558 l 491 393 l 494 44 l 543 43 l 833 47 l 886 48 q 926 24 926 48 q 904 1 926 3 q 873 0 899 1 l 79 0 l 81 258 l 82 416 l 83 595 l 81 867 l 81 926 l 496 926 z "},"M":{"ha":1317,"x_min":15,"x_max":1302,"o":"m 1019 958 l 1166 452 l 1234 229 l 1294 26 l 1302 0 l 890 0 l 760 479 l 479 58 l 192 458 q 102 99 151 312 q 76 2 84 18 q 45 -13 68 -13 q 15 7 15 -13 q 34 76 15 14 l 76 220 l 149 470 l 292 958 l 664 420 l 1019 958 z "},"N":{"ha":1023,"x_min":65,"x_max":959,"o":"m 910 475 l 910 589 l 909 768 l 908 850 l 907 902 q 932 939 907 939 q 953 930 947 939 q 959 898 959 922 l 959 888 q 958 842 958 874 l 956 613 l 954 404 l 956 183 l 958 -38 q 549 204 819 50 q 113 446 280 358 l 114 413 l 121 63 l 121 16 q 94 -13 121 -13 q 66 23 66 -13 l 67 71 l 68 147 l 71 495 l 65 964 q 910 475 340 793 z "},"O":{"ha":1053,"x_min":37,"x_max":1021,"o":"m 529 954 q 736 908 636 954 q 960 701 882 841 q 1021 458 1021 589 q 975 253 1021 352 q 757 28 905 105 q 529 -28 648 -28 q 290 36 403 -28 q 77 272 140 120 q 37 464 37 365 q 99 701 37 588 q 321 907 175 839 q 529 954 418 953 m 475 908 l 471 467 l 475 100 l 475 17 q 519 13 498 13 q 787 96 669 13 q 943 291 895 172 q 977 464 977 374 q 920 684 977 582 q 724 867 850 808 q 524 912 629 912 q 475 908 499 912 z "},"P":{"ha":1058,"x_min":79,"x_max":1017,"o":"m 492 166 l 492 147 l 492 17 l 492 0 l 79 0 l 79 41 l 83 518 l 80 745 l 79 899 l 79 926 l 389 926 q 676 909 578 926 q 841 851 774 893 q 979 694 930 795 q 1017 534 1017 618 q 975 360 1017 443 q 832 208 924 261 q 620 155 741 155 q 492 166 575 155 m 492 880 l 492 834 l 490 381 l 491 212 q 630 198 545 198 q 775 229 707 198 q 891 315 844 259 q 972 534 972 409 q 892 749 972 652 q 745 848 835 817 q 513 880 654 880 l 492 880 z "},"Q":{"ha":1052,"x_min":37,"x_max":1020,"o":"m 826 68 q 989 -47 888 14 q 1008 -70 1008 -58 q 1000 -86 1008 -79 q 984 -94 993 -94 q 901 -50 966 -94 q 784 41 836 -7 q 529 -28 660 -28 q 286 37 401 -28 q 88 245 155 110 q 37 463 37 348 q 163 791 37 652 q 333 913 235 871 q 528 954 426 954 q 789 880 669 954 q 972 672 910 804 q 1020 462 1020 572 q 968 242 1020 348 q 826 68 916 136 m 791 97 q 899 209 848 136 q 977 461 977 321 q 917 687 977 580 q 754 852 858 792 q 528 911 651 911 q 475 907 501 911 l 475 18 q 522 13 499 13 q 749 71 650 13 q 629 214 629 191 q 636 228 629 221 q 650 235 643 235 q 682 210 661 235 q 791 97 741 140 z "},"R":{"ha":1063,"x_min":79,"x_max":1017,"o":"m 644 153 q 784 77 709 109 q 947 28 860 45 q 968 7 968 24 q 937 -15 968 -15 q 736 47 865 -15 q 491 209 629 100 l 491 181 l 492 66 l 492 0 l 79 0 l 79 31 l 80 252 l 82 516 l 81 926 l 353 926 q 630 916 536 926 q 789 878 724 905 q 959 730 897 833 q 1017 531 1017 635 q 952 321 1017 420 q 644 153 848 163 m 579 195 l 612 195 q 848 273 751 195 q 941 395 909 321 q 972 532 972 462 q 895 744 972 650 q 747 846 836 817 q 496 878 658 876 l 490 424 l 490 301 l 491 269 q 579 195 532 229 z "},"S":{"ha":829,"x_min":46,"x_max":788,"o":"m 70 157 q 98 139 82 157 q 223 50 149 83 q 368 16 296 16 q 448 64 448 16 q 420 133 448 95 q 287 285 392 172 q 111 497 155 428 q 52 671 52 589 q 163 876 52 796 q 433 954 273 954 q 638 908 545 954 q 699 867 673 890 q 724 829 724 844 q 717 815 724 821 q 703 808 710 808 q 669 829 691 808 q 572 887 632 864 q 458 909 513 909 q 402 895 424 909 q 381 857 381 880 q 408 789 381 829 q 497 683 434 749 q 741 397 696 471 q 788 246 788 319 q 755 130 788 184 q 663 39 722 75 q 388 -28 550 -28 q 125 50 239 -28 q 46 134 46 104 q 53 150 46 143 q 70 157 60 157 z "},"T":{"ha":959,"x_min":5,"x_max":954,"o":"m 691 880 l 688 668 l 686 467 l 688 0 l 274 0 l 278 541 l 276 724 l 274 880 l 184 878 l 56 876 l 37 875 q 5 899 5 875 q 24 924 5 921 q 57 926 29 925 l 889 926 q 941 922 932 925 q 954 899 954 916 q 920 876 954 876 l 861 878 l 705 880 l 691 880 z "},"U":{"ha":1044,"x_min":79,"x_max":988,"o":"m 494 926 l 490 574 l 489 205 l 491 18 q 551 15 526 15 q 870 125 789 15 q 925 287 911 182 q 938 668 938 392 l 936 848 l 933 903 q 962 939 933 939 q 988 905 988 939 q 986 851 988 885 l 981 581 q 975 348 978 410 q 961 233 971 287 q 864 57 940 123 q 532 -28 767 -28 q 220 28 326 -28 q 103 172 138 71 q 85 269 87 219 q 81 570 82 318 l 79 926 l 494 926 z "},"V":{"ha":1088,"x_min":-12,"x_max":1107,"o":"m 770 384 l 891 611 q 1035 889 981 778 q 1058 929 1049 919 q 1078 939 1066 939 q 1099 931 1090 939 q 1107 912 1107 923 q 1093 876 1107 901 q 1086 864 1090 869 q 1069 833 1080 853 l 567 -71 l -12 926 l 463 926 l 770 384 z "},"W":{"ha":1407,"x_min":-12,"x_max":1426,"o":"m 1171 439 q 1351 892 1280 701 q 1369 931 1362 923 q 1392 939 1376 939 q 1416 932 1406 939 q 1426 916 1426 925 q 1373 787 1426 907 l 1333 699 l 996 -65 l 829 250 l 697 485 l 593 295 l 435 -1 l 403 -65 l 272 258 l 157 538 q -8 917 71 749 l -12 926 l 412 926 l 471 777 q 612 441 560 553 l 738 671 l 784 758 l 815 817 l 867 914 q 890 957 880 938 l 991 761 q 1171 439 1078 595 z "},"X":{"ha":1076,"x_min":14,"x_max":1083,"o":"m 722 543 l 736 522 q 926 224 873 304 q 1083 0 979 145 l 600 0 l 366 382 q 111 50 256 252 q 71 0 84 13 q 43 -13 57 -13 q 19 9 19 -13 q 24 27 19 18 q 61 75 29 35 l 85 104 l 338 424 l 14 926 l 490 926 l 695 585 q 901 859 768 674 q 952 926 941 913 q 978 939 964 939 q 997 931 989 939 q 1005 913 1005 924 q 994 885 1005 901 q 916 787 983 869 l 722 543 z "},"Y":{"ha":1018,"x_min":-12,"x_max":1037,"o":"m 743 572 l 959 888 q 989 930 981 922 q 1010 939 997 939 q 1029 932 1021 939 q 1037 918 1037 926 q 1029 897 1037 909 q 1015 878 1023 888 l 994 848 l 442 73 l 420 43 q 383 -5 391 2 q 361 -13 375 -13 q 340 6 340 -13 q 359 39 340 16 l 514 250 l 495 275 q 204 662 289 553 q -12 926 119 771 l 479 926 l 743 572 z "},"Z":{"ha":934,"x_min":33,"x_max":911,"o":"m 911 926 l 897 897 q 496 45 656 414 l 651 45 l 813 47 l 857 49 q 897 24 897 49 q 888 4 897 7 q 822 0 878 1 l 33 0 l 45 26 q 451 882 342 621 l 144 876 l 113 875 q 75 900 75 875 q 92 923 75 918 q 138 926 101 926 l 911 926 z "},"[":{"ha":507,"x_min":79,"x_max":423,"o":"m 79 954 l 282 954 l 372 955 q 423 929 423 956 q 378 904 423 904 l 330 905 l 282 905 l 280 687 l 278 391 l 280 96 l 282 -122 l 330 -121 l 374 -121 q 423 -146 423 -121 q 366 -172 423 -173 l 282 -171 l 79 -171 l 79 -132 l 82 60 l 86 391 l 82 723 l 79 916 l 79 954 z "},"\\":{"ha":648,"x_min":41,"x_max":605,"o":"m 68 954 q 110 911 92 954 q 136 854 115 898 l 210 696 l 348 404 l 484 119 l 593 -112 q 605 -146 605 -138 q 596 -164 605 -157 q 574 -171 587 -171 q 556 -162 562 -171 q 525 -100 550 -153 l 494 -33 l 431 98 l 298 381 l 84 829 l 58 886 q 41 930 41 920 q 49 947 41 939 q 68 954 57 954 z "},"]":{"ha":507,"x_min":79,"x_max":423,"o":"m 423 -171 l 220 -171 l 131 -172 q 79 -146 79 -172 q 124 -121 79 -121 l 172 -121 q 220 -122 214 -121 l 222 96 l 224 391 l 222 687 l 220 905 l 172 905 l 124 904 q 79 929 79 904 q 136 955 79 956 l 220 954 l 423 954 l 423 916 l 420 723 l 416 392 l 420 60 l 423 -132 l 423 -171 z "},"^":{"ha":694,"x_min":-47,"x_max":742,"o":"m 742 379 l 629 379 l 453 667 l 254 379 l -47 379 l 364 972 l 378 972 l 742 379 z "},"_":{"ha":694,"x_min":-2,"x_max":697,"o":"m -2 -130 l 697 -130 l 697 -266 l -2 -266 l -2 -130 z "},"`":{"ha":694,"x_min":158,"x_max":463,"o":"m 463 817 l 304 817 l 158 1002 l 397 1002 l 463 817 z "},"a":{"ha":978,"x_min":33,"x_max":939,"o":"m 559 452 l 559 534 q 557 640 559 621 q 545 675 555 660 q 431 713 520 713 q 217 627 292 713 q 165 591 186 591 q 138 602 150 591 q 127 627 127 613 q 228 715 127 670 q 477 759 324 759 q 831 683 728 759 q 889 608 876 650 q 903 463 903 567 l 903 193 q 907 81 900 119 q 939 0 914 43 l 559 0 l 559 71 q 436 7 497 28 q 315 -15 374 -15 q 135 44 214 -15 q 33 245 33 121 q 115 421 33 354 q 354 500 212 500 q 457 490 412 500 q 559 452 502 479 m 560 403 q 428 446 475 446 q 376 414 389 446 q 370 316 370 397 l 370 154 q 373 89 370 100 q 419 58 380 58 q 489 76 450 58 q 559 125 527 95 l 560 403 z "},"b":{"ha":1036,"x_min":79,"x_max":1004,"o":"m 79 926 l 426 926 l 423 669 q 530 736 475 714 q 645 759 585 759 q 884 662 778 759 q 1004 378 1004 553 q 881 80 1004 197 q 651 -15 781 -15 q 532 9 585 -15 q 425 88 480 33 l 425 0 l 79 0 l 79 31 l 81 359 l 80 594 l 79 926 m 423 614 l 423 151 q 495 81 469 103 q 593 37 549 37 q 633 66 624 37 q 637 135 637 80 l 637 591 l 638 621 q 629 691 638 672 q 594 709 620 709 q 519 686 562 709 q 423 614 476 662 z "},"c":{"ha":783,"x_min":33,"x_max":789,"o":"m 397 593 l 397 140 l 397 97 q 407 41 397 55 q 450 27 418 27 q 607 76 530 27 q 733 208 684 125 q 762 233 748 233 q 781 224 772 233 q 789 205 789 215 q 750 136 789 180 q 659 56 711 92 q 431 -15 552 -15 q 156 88 264 -15 q 33 372 33 204 q 163 661 33 546 q 432 759 272 759 q 655 699 559 759 q 722 643 696 673 q 747 593 747 614 q 740 576 747 583 q 722 569 732 569 q 686 602 707 569 q 587 681 654 647 q 460 714 520 714 q 409 692 420 714 q 397 593 397 669 z "},"d":{"ha":1036,"x_min":33,"x_max":958,"o":"m 958 926 l 956 594 l 956 359 l 958 31 l 958 0 l 611 0 l 611 88 q 504 9 555 33 q 386 -15 452 -15 q 157 80 257 -15 q 33 378 33 197 q 153 662 33 553 q 392 759 259 759 q 506 736 451 759 q 613 669 562 714 l 610 926 l 958 926 m 613 614 q 518 686 560 662 q 443 709 475 709 q 408 691 417 709 q 399 621 399 672 l 399 591 l 399 135 q 404 66 400 80 q 444 37 412 37 q 515 63 477 37 q 613 151 553 88 l 613 614 z "},"e":{"ha":831,"x_min":33,"x_max":805,"o":"m 349 349 l 349 138 q 357 61 349 77 q 424 30 371 30 q 579 73 503 30 q 713 192 656 116 q 739 224 731 217 q 757 231 747 231 q 776 222 768 231 q 783 201 783 214 q 738 124 783 172 q 590 24 678 62 q 417 -15 501 -15 q 162 82 273 -15 q 63 222 98 139 q 33 369 33 296 q 60 510 33 439 q 134 633 87 581 q 264 726 189 693 q 419 759 338 759 q 646 685 545 759 q 804 351 805 570 l 646 351 l 442 350 l 349 349 m 523 393 l 523 591 q 520 668 522 655 q 511 691 519 680 q 433 718 492 718 q 359 687 374 718 q 349 591 349 669 l 349 393 l 432 391 l 523 393 z "},"f":{"ha":534,"x_min":-5,"x_max":602,"o":"m 437 701 l 435 497 l 434 245 l 437 27 l 437 0 l 90 0 l 90 23 l 92 133 l 93 371 l 90 681 l 90 701 l 78 701 l 26 699 q -5 722 -5 699 q 23 746 -5 746 l 56 744 l 95 744 q 119 833 104 801 q 164 895 134 865 q 406 979 249 979 q 543 956 484 979 q 602 903 602 933 q 592 883 602 892 q 571 875 583 875 q 545 890 557 875 q 519 916 528 910 q 498 922 511 922 q 450 883 464 922 q 435 744 435 843 l 498 744 q 515 745 502 744 q 537 746 527 746 q 565 722 565 746 q 532 699 565 699 l 482 700 l 437 701 z "},"g":{"ha":779,"x_min":41,"x_max":755,"o":"m 606 711 q 703 636 664 683 q 755 490 755 573 q 726 378 755 431 q 642 290 696 326 q 404 222 543 222 q 285 234 339 222 q 186 269 231 245 q 154 224 154 247 q 190 193 154 198 q 297 187 268 183 l 301 188 l 504 188 l 514 189 q 661 155 616 195 q 695 80 695 123 q 671 15 695 44 q 561 -33 630 -33 q 528 -32 548 -33 q 539 -5 539 -15 q 501 16 539 16 q 365 1 469 16 q 245 -9 292 -9 q 115 23 170 -9 q 65 73 83 41 q 47 142 47 105 q 69 219 47 184 q 142 293 91 254 q 68 373 94 323 q 41 479 41 422 q 179 698 41 616 q 429 759 282 759 q 497 755 462 759 q 567 751 545 751 q 645 799 621 751 q 675 827 659 827 q 698 819 688 827 q 707 798 707 810 q 680 750 707 774 q 606 711 653 727 m 339 637 l 339 350 q 347 286 339 298 q 404 267 361 267 q 456 285 443 267 q 469 359 469 304 l 469 635 q 456 697 469 682 q 404 713 443 713 q 352 697 366 713 q 339 637 339 682 z "},"h":{"ha":1053,"x_min":79,"x_max":983,"o":"m 425 645 q 532 709 490 689 q 733 759 633 759 q 863 733 805 759 q 948 663 920 707 q 981 466 981 609 l 980 365 l 979 231 l 983 0 l 635 0 l 638 419 l 635 633 q 585 669 628 669 q 513 649 553 669 q 425 591 473 630 l 424 420 l 427 125 l 429 0 l 79 0 l 81 286 l 81 612 l 79 895 l 79 926 l 425 926 l 425 907 l 426 791 l 425 719 l 425 645 z "},"i":{"ha":510,"x_min":79,"x_max":431,"o":"m 252 978 q 431 884 431 978 q 384 813 431 839 q 252 788 337 788 q 81 884 81 788 q 252 978 81 977 m 428 741 l 428 721 l 427 615 l 425 451 l 423 201 l 426 61 l 427 0 l 79 0 l 82 250 l 84 470 l 83 586 l 81 715 l 81 741 l 428 741 z "},"j":{"ha":551,"x_min":-14,"x_max":479,"o":"m 475 741 l 474 596 l 475 496 l 476 418 q 469 188 476 237 q 426 85 461 138 q 176 -39 342 -39 q 31 -3 87 -39 q -14 54 -14 25 q -5 76 -14 66 q 14 85 3 85 q 32 79 26 85 q 56 43 38 73 q 102 13 73 13 q 126 23 119 13 q 134 64 132 34 l 136 276 l 134 498 l 133 612 l 132 712 l 132 741 l 475 741 m 301 978 q 479 884 479 978 q 432 813 479 839 q 299 788 385 788 q 129 884 129 788 q 301 978 129 977 z "},"k":{"ha":1009,"x_min":79,"x_max":1058,"o":"m 669 599 l 747 471 l 821 346 q 969 107 930 165 q 1058 0 1009 50 l 654 0 l 529 219 q 423 397 460 342 l 423 366 l 424 243 l 425 32 l 426 0 l 79 0 l 81 327 l 82 515 l 79 894 l 79 926 l 426 926 l 423 480 l 423 444 q 684 667 612 614 q 848 737 778 737 q 900 699 900 737 q 890 676 900 686 q 867 667 881 667 q 848 671 859 667 q 819 676 829 676 q 758 660 790 676 q 669 599 726 643 z "},"l":{"ha":504,"x_min":79,"x_max":425,"o":"m 425 926 l 425 891 l 424 652 l 423 549 l 422 361 l 425 26 l 425 0 l 79 0 l 79 32 l 80 140 l 81 335 l 82 591 l 81 728 l 79 880 l 80 926 l 425 926 z "},"m":{"ha":1605,"x_min":79,"x_max":1535,"o":"m 960 631 q 1125 729 1048 699 q 1286 759 1201 759 q 1502 659 1441 759 q 1527 590 1520 629 q 1533 475 1533 551 l 1531 296 l 1531 254 l 1534 28 l 1535 0 l 1187 0 l 1190 214 l 1193 430 l 1192 517 q 1192 574 1192 566 q 1181 648 1193 627 q 1137 668 1168 668 q 1062 648 1103 668 q 975 589 1022 629 q 979 513 979 562 l 977 343 l 976 153 q 979 0 976 68 l 632 0 l 633 148 l 635 467 q 631 640 635 624 q 583 669 624 669 q 512 650 551 669 q 426 591 473 631 l 423 304 l 427 0 l 79 0 l 79 27 l 80 151 l 81 319 l 81 481 l 79 741 l 426 741 l 426 646 q 577 731 502 703 q 728 759 653 759 q 911 702 842 759 q 960 631 939 680 z "},"n":{"ha":1047,"x_min":79,"x_max":977,"o":"m 426 741 l 426 646 q 581 731 505 703 q 729 759 657 759 q 892 715 825 759 q 959 632 942 682 q 977 472 977 583 l 975 158 l 977 0 l 632 0 l 635 189 l 637 327 l 636 536 q 634 622 635 608 q 628 647 633 636 q 581 669 617 669 q 509 650 548 669 q 426 593 471 631 l 425 565 l 424 374 l 422 229 l 425 29 l 425 0 l 79 0 l 81 266 l 83 441 l 81 593 l 79 741 l 426 741 z "},"o":{"ha":832,"x_min":33,"x_max":804,"o":"m 418 759 q 625 699 527 759 q 762 547 715 643 q 804 367 804 462 q 780 236 804 302 q 712 119 755 170 q 566 14 652 50 q 419 -15 496 -15 q 189 61 291 -15 q 67 211 109 119 q 33 374 33 288 q 155 654 33 543 q 418 759 269 757 m 398 715 l 396 31 q 425 30 417 30 q 606 83 519 30 q 730 220 688 134 q 762 369 762 288 q 642 634 762 532 q 429 716 544 716 q 398 715 420 716 z "},"p":{"ha":1013,"x_min":79,"x_max":981,"o":"m 79 741 l 425 741 l 423 652 q 549 735 492 711 q 674 759 606 759 q 902 654 814 759 q 981 416 981 561 q 890 163 981 262 q 682 72 807 72 q 551 99 616 72 q 422 182 486 127 l 422 157 l 423 68 l 425 -6 l 425 -31 l 79 -31 l 79 162 l 81 342 l 79 717 l 79 741 m 423 591 l 423 237 q 512 167 473 191 q 581 144 551 144 q 612 170 608 144 q 614 262 614 179 l 614 593 q 612 664 614 652 q 584 692 608 692 q 510 665 553 692 q 423 591 467 637 z "},"q":{"ha":1013,"x_min":33,"x_max":935,"o":"m 935 741 l 932 342 l 934 162 l 935 -31 l 588 -31 l 589 -6 l 590 68 l 591 182 q 462 99 527 127 q 331 72 397 72 q 123 163 206 72 q 33 416 33 262 q 111 654 33 561 q 339 759 199 759 q 465 735 408 759 q 590 652 521 711 l 588 741 l 935 741 m 590 591 q 516 656 549 635 q 429 692 462 692 q 400 661 404 692 q 399 593 399 650 l 399 262 q 401 166 399 176 q 433 144 407 144 q 501 167 462 144 q 590 237 541 191 l 590 591 z "},"r":{"ha":736,"x_min":79,"x_max":755,"o":"m 425 530 l 424 270 l 427 0 l 79 0 l 79 37 l 80 176 l 82 425 l 79 701 l 79 741 l 426 741 l 426 601 q 534 705 504 684 q 667 755 605 755 q 730 739 705 755 q 755 697 755 722 q 740 665 755 677 q 703 652 725 652 q 671 660 688 652 q 621 674 641 674 q 527 641 572 674 q 425 530 481 608 z "},"s":{"ha":668,"x_min":38,"x_max":635,"o":"m 66 125 q 101 105 80 125 q 197 51 135 73 q 314 28 260 28 q 352 36 339 28 q 364 61 364 45 q 347 100 364 77 q 270 187 330 123 q 81 407 124 343 q 38 528 38 470 q 67 626 38 579 q 150 705 97 672 q 351 759 237 759 q 527 724 434 759 q 600 663 600 696 q 591 645 600 653 q 572 637 583 637 q 524 662 559 637 q 367 713 452 713 q 322 704 337 713 q 307 675 307 694 q 335 616 307 652 q 449 497 363 581 q 556 390 533 415 q 600 331 578 364 q 635 208 635 274 q 534 39 635 103 q 331 -15 452 -15 q 93 45 197 -15 q 51 75 62 63 q 40 100 40 86 q 66 125 40 125 z "},"t":{"ha":601,"x_min":0,"x_max":633,"o":"m 452 979 l 445 760 l 444 739 q 551 744 503 739 q 566 745 559 745 q 595 718 595 745 q 564 692 595 692 q 541 694 555 692 q 464 698 487 698 l 444 698 l 444 566 l 446 302 l 448 161 q 456 92 448 112 q 481 73 463 73 q 534 101 506 73 q 576 171 561 130 q 610 210 591 210 q 633 184 633 210 q 610 120 633 159 q 555 54 587 82 q 347 -16 475 -16 q 161 56 227 -16 q 115 138 127 93 q 102 263 102 183 l 102 314 l 102 457 l 102 700 q 89 701 93 701 q 62 699 82 701 q 33 698 45 698 q 0 723 0 698 q 32 747 0 747 q 53 747 47 747 l 102 743 l 102 820 q 452 979 303 892 z "},"u":{"ha":1048,"x_min":69,"x_max":970,"o":"m 970 741 l 968 208 l 970 0 l 623 0 l 623 96 q 466 11 537 37 q 318 -15 395 -15 q 113 69 176 -15 q 80 140 89 100 q 71 253 71 180 l 72 412 l 73 517 l 69 741 l 416 741 l 412 400 l 413 271 l 414 184 q 423 91 414 106 q 467 73 435 73 q 534 90 499 73 q 625 151 569 107 l 625 239 l 627 481 l 623 720 l 623 741 l 970 741 z "},"v":{"ha":876,"x_min":-37,"x_max":903,"o":"m 627 344 q 821 708 787 625 q 846 758 838 747 q 867 769 854 769 q 892 761 881 769 q 903 744 903 753 q 888 708 903 733 l 492 -2 l 471 -41 l 291 243 l 231 338 l 169 433 l 115 518 l -37 741 l 385 741 l 549 469 l 627 344 z "},"w":{"ha":1200,"x_min":-37,"x_max":1227,"o":"m 1008 370 q 1153 709 1082 522 q 1176 763 1170 753 q 1195 772 1183 772 q 1217 765 1208 772 q 1227 747 1227 757 q 1220 720 1227 737 q 1169 607 1213 702 l 1083 419 l 1004 250 l 940 108 l 872 -47 l 616 394 q 547 273 590 351 l 375 -47 l 248 196 l 151 380 l 68 541 l -37 741 l 348 741 l 543 361 q 621 495 599 455 q 777 792 642 535 l 1008 370 z "},"x":{"ha":989,"x_min":-3,"x_max":1001,"o":"m 651 443 l 705 369 q 866 155 801 235 q 1001 0 930 75 l 556 0 l 338 302 q 100 35 212 176 q 43 -15 61 -15 q 21 -3 33 -15 q 9 18 9 8 q 58 79 9 35 q 309 339 176 191 l 250 422 q -3 741 85 653 l 439 741 l 624 479 q 833 720 768 638 q 880 760 863 760 q 902 748 890 760 q 914 726 914 736 q 876 678 914 712 q 769 569 850 654 l 651 443 z "},"y":{"ha":838,"x_min":-37,"x_max":866,"o":"m 595 403 q 788 711 727 606 q 815 753 810 747 q 831 759 821 759 q 855 749 844 759 q 866 726 866 739 q 854 701 866 715 q 607 340 757 568 l 488 158 q 386 23 426 64 q 315 -24 356 -6 q 236 -43 274 -43 q 175 -28 199 -43 q 151 9 151 -14 q 161 33 151 23 q 188 43 172 43 q 233 28 199 43 q 270 18 254 18 q 328 36 300 18 q 388 98 355 55 l 308 223 q -37 741 50 625 l 394 741 q 488 563 435 652 q 595 403 541 474 z "},"z":{"ha":911,"x_min":2,"x_max":902,"o":"m 902 741 l 517 154 l 460 64 l 450 46 l 536 46 q 819 59 677 46 q 848 60 838 60 q 882 28 882 60 q 838 -4 882 -4 l 797 -3 l 442 0 l 2 0 q 355 528 140 182 l 446 671 l 463 699 l 391 699 q 145 691 241 699 q 113 689 125 689 q 81 717 81 689 q 89 742 81 735 q 120 748 98 748 l 144 747 l 574 741 l 902 741 z "},"{":{"ha":898,"x_min":194,"x_max":711,"o":"m 317 396 q 485 349 434 387 q 535 233 535 311 l 535 -43 q 545 -99 535 -86 q 589 -111 555 -111 l 620 -111 l 644 -111 q 687 -113 677 -111 q 711 -138 711 -117 q 690 -160 711 -156 q 562 -163 668 -163 q 341 -106 404 -163 q 305 -51 315 -83 q 296 47 296 -18 l 296 277 q 283 352 296 333 q 233 370 271 370 l 220 370 q 194 396 194 370 q 220 421 194 421 l 233 421 q 283 440 271 421 q 296 514 296 458 l 296 744 q 307 846 296 813 q 348 903 317 880 q 562 954 414 954 q 690 950 669 954 q 711 929 711 947 q 687 903 711 907 q 645 901 677 901 l 620 901 l 589 902 q 545 889 555 902 q 535 835 535 877 l 535 558 q 485 442 535 479 q 317 396 434 405 z "},"|":{"ha":694,"x_min":256,"x_max":439,"o":"m 256 926 l 439 926 l 439 -231 l 256 -231 l 256 926 z "},"}":{"ha":898,"x_min":186,"x_max":704,"o":"m 581 396 q 413 442 464 405 q 363 558 363 479 l 363 835 q 353 889 363 877 q 309 902 343 902 l 278 901 l 254 901 q 211 903 221 901 q 186 929 186 907 q 208 950 186 947 q 336 954 229 954 q 557 897 494 954 q 593 841 583 873 q 602 744 602 809 l 602 514 q 615 440 602 458 q 665 421 627 421 l 677 421 q 704 396 704 421 q 677 370 704 370 l 665 370 q 615 352 627 370 q 602 277 602 333 l 602 47 q 591 -55 602 -22 q 550 -113 580 -88 q 336 -163 485 -163 q 208 -160 229 -163 q 186 -138 186 -156 q 211 -113 186 -117 q 253 -111 221 -111 l 278 -111 l 309 -111 q 353 -99 343 -111 q 363 -43 363 -86 l 363 233 q 413 349 363 311 q 581 396 464 387 z "},"~":{"ha":926,"x_min":144,"x_max":784,"o":"m 735 557 l 784 532 q 688 414 748 473 q 630 375 659 386 q 555 363 601 363 q 403 400 514 363 q 306 416 352 416 q 229 395 260 416 q 206 378 222 391 q 191 365 201 373 l 144 389 q 245 514 204 481 q 362 559 302 559 q 490 532 401 559 q 624 505 583 505 q 735 557 682 505 z "},"Ä":{"ha":1084,"x_min":-9,"x_max":1102,"o":"m 559 981 l 1102 0 l 632 0 l 568 124 l 340 124 l 139 125 l 105 125 l 60 43 q 33 -4 41 5 q 14 -13 25 -13 q -9 7 -9 -13 q 4 40 -9 16 q 96 199 17 64 l 507 890 l 559 981 m 349 537 l 230 337 l 135 172 l 338 170 l 543 172 l 349 537 m 724 1198 q 820 1173 784 1198 q 856 1105 856 1147 q 819 1033 856 1061 q 724 1006 783 1006 q 629 1032 666 1006 q 593 1100 593 1058 q 628 1171 593 1144 q 724 1198 664 1198 m 386 1198 q 482 1173 446 1198 q 518 1105 518 1147 q 481 1033 518 1061 q 387 1006 445 1006 q 292 1032 328 1006 q 255 1100 255 1058 q 291 1171 255 1144 q 386 1198 326 1198 z "},"Å":{"ha":1084,"x_min":-9,"x_max":1102,"o":"m 559 981 l 1102 0 l 632 0 l 568 124 l 340 124 l 139 125 l 105 125 l 60 43 q 33 -4 41 5 q 14 -13 25 -13 q -9 7 -9 -13 q 4 40 -9 16 q 96 199 17 64 l 507 890 l 559 981 m 349 537 l 230 337 l 135 172 l 338 170 l 543 172 l 349 537 m 556 1267 q 656 1227 616 1267 q 696 1130 696 1187 q 655 1034 696 1072 q 553 995 614 995 q 454 1033 492 995 q 415 1131 415 1071 q 455 1228 415 1190 q 556 1267 494 1267 m 525 1046 q 548 1041 538 1042 q 564 1039 557 1039 q 626 1067 600 1039 q 653 1131 653 1095 q 626 1197 653 1170 q 564 1224 598 1224 q 548 1222 557 1224 q 525 1217 538 1221 l 525 1046 z "},"Ç":{"ha":981,"x_min":37,"x_max":975,"o":"m 518 -28 l 486 -95 q 511 -94 504 -94 q 635 -197 635 -94 q 597 -275 635 -246 q 494 -304 559 -304 q 405 -279 438 -304 q 378 -241 378 -259 q 384 -228 378 -234 q 397 -222 389 -222 q 410 -229 402 -222 q 451 -256 439 -250 q 481 -261 463 -261 q 511 -255 494 -261 l 511 -134 q 488 -131 496 -131 q 463 -136 477 -131 q 442 -140 450 -140 q 427 -125 427 -140 q 435 -102 427 -119 l 472 -24 q 195 104 306 2 q 72 285 113 178 q 37 463 37 372 q 106 714 37 596 q 316 906 180 840 q 528 954 414 954 q 866 821 724 954 q 934 730 934 758 q 927 717 934 723 q 912 711 920 711 q 880 736 899 711 q 726 865 821 818 q 523 912 630 912 q 475 907 498 912 l 472 427 l 475 18 q 534 14 510 14 q 670 37 601 14 q 793 102 740 61 q 865 172 828 127 q 924 258 902 217 q 952 283 937 283 q 975 264 975 283 q 941 195 975 243 q 867 108 907 146 q 663 -8 781 25 q 537 -28 591 -28 l 518 -28 z "},"É":{"ha":930,"x_min":79,"x_max":927,"o":"m 491 629 q 490 553 490 597 l 490 512 l 494 44 l 724 47 l 887 49 q 927 24 927 49 q 907 1 927 4 q 850 0 902 1 l 80 0 l 81 35 l 81 262 l 84 505 l 79 926 l 798 926 q 852 924 846 926 q 868 901 868 920 q 838 877 868 877 l 833 877 l 494 882 l 491 671 l 565 671 l 802 675 l 854 675 q 892 671 883 675 q 901 652 901 666 q 857 625 901 625 l 803 627 l 491 629 m 405 1001 l 471 1187 l 710 1187 l 564 1001 l 405 1001 z "},"Ñ":{"ha":1023,"x_min":65,"x_max":959,"o":"m 910 475 l 910 589 l 909 768 l 908 850 l 907 902 q 932 939 907 939 q 953 930 947 939 q 959 898 959 922 l 959 888 q 958 842 958 874 l 956 613 l 954 404 l 956 183 l 958 -38 q 549 204 819 50 q 113 446 280 358 l 114 413 l 121 63 l 121 16 q 94 -13 121 -13 q 66 23 66 -13 l 67 71 l 68 147 l 71 495 l 65 964 q 910 475 340 793 m 462 1200 l 751 1131 l 808 1182 q 831 1196 823 1196 q 846 1189 839 1196 q 852 1175 852 1183 q 837 1154 852 1168 l 666 989 l 370 1059 l 311 1006 q 286 993 297 993 q 272 999 279 993 q 266 1013 266 1006 q 281 1037 266 1023 l 462 1200 z "},"Ö":{"ha":1053,"x_min":37,"x_max":1021,"o":"m 529 954 q 736 908 636 954 q 960 701 882 841 q 1021 458 1021 589 q 975 253 1021 352 q 757 28 905 105 q 529 -28 648 -28 q 290 36 403 -28 q 77 272 140 120 q 37 464 37 365 q 99 701 37 588 q 321 907 175 839 q 529 954 418 953 m 475 908 l 471 467 l 475 100 l 475 17 q 519 13 498 13 q 787 96 669 13 q 943 291 895 172 q 977 464 977 374 q 920 684 977 582 q 724 867 850 808 q 524 912 629 912 q 475 908 499 912 m 699 1200 q 795 1174 759 1200 q 831 1106 831 1149 q 794 1035 831 1062 q 699 1007 758 1007 q 604 1033 641 1007 q 568 1101 568 1059 q 603 1172 568 1145 q 699 1200 639 1199 m 361 1200 q 457 1174 421 1200 q 493 1106 493 1149 q 456 1035 493 1062 q 361 1007 420 1007 q 267 1033 303 1007 q 230 1101 230 1059 q 266 1172 230 1145 q 361 1200 301 1199 z "},"Ü":{"ha":1044,"x_min":79,"x_max":988,"o":"m 494 926 l 490 574 l 489 205 l 491 18 q 551 15 526 15 q 870 125 789 15 q 925 287 911 182 q 938 668 938 392 l 936 848 l 933 903 q 962 939 933 939 q 988 905 988 939 q 986 851 988 885 l 981 581 q 975 348 978 410 q 961 233 971 287 q 864 57 940 123 q 532 -28 767 -28 q 220 28 326 -28 q 103 172 138 71 q 85 269 87 219 q 81 570 82 318 l 79 926 l 494 926 m 721 1200 q 817 1174 781 1200 q 852 1106 852 1149 q 816 1035 852 1062 q 721 1007 779 1007 q 626 1033 663 1007 q 589 1101 589 1059 q 625 1172 589 1145 q 721 1200 661 1199 m 382 1200 q 479 1174 443 1200 q 515 1106 515 1149 q 478 1035 515 1062 q 383 1007 441 1007 q 288 1033 325 1007 q 252 1101 252 1059 q 287 1172 252 1145 q 382 1200 323 1199 z "},"á":{"ha":978,"x_min":33,"x_max":939,"o":"m 559 452 l 559 534 q 557 640 559 621 q 545 675 555 660 q 431 713 520 713 q 217 627 292 713 q 165 591 186 591 q 138 602 150 591 q 127 627 127 613 q 228 715 127 670 q 477 759 324 759 q 831 683 728 759 q 889 608 876 650 q 903 463 903 567 l 903 193 q 907 81 900 119 q 939 0 914 43 l 559 0 l 559 71 q 436 7 497 28 q 315 -15 374 -15 q 135 44 214 -15 q 33 245 33 121 q 115 421 33 354 q 354 500 212 500 q 457 490 412 500 q 559 452 502 479 m 560 403 q 428 446 475 446 q 376 414 389 446 q 370 316 370 397 l 370 154 q 373 89 370 100 q 419 58 380 58 q 489 76 450 58 q 559 125 527 95 l 560 403 m 392 817 l 458 1002 l 697 1002 l 551 817 l 392 817 z "},"à":{"ha":978,"x_min":33,"x_max":939,"o":"m 559 452 l 559 534 q 557 640 559 621 q 545 675 555 660 q 431 713 520 713 q 217 627 292 713 q 165 591 186 591 q 138 602 150 591 q 127 627 127 613 q 228 715 127 670 q 477 759 324 759 q 831 683 728 759 q 889 608 876 650 q 903 463 903 567 l 903 193 q 907 81 900 119 q 939 0 914 43 l 559 0 l 559 71 q 436 7 497 28 q 315 -15 374 -15 q 135 44 214 -15 q 33 245 33 121 q 115 421 33 354 q 354 500 212 500 q 457 490 412 500 q 559 452 502 479 m 560 403 q 428 446 475 446 q 376 414 389 446 q 370 316 370 397 l 370 154 q 373 89 370 100 q 419 58 380 58 q 489 76 450 58 q 559 125 527 95 l 560 403 m 605 817 l 446 817 l 300 1002 l 538 1002 l 605 817 z "},"â":{"ha":978,"x_min":33,"x_max":939,"o":"m 559 452 l 559 534 q 557 640 559 621 q 545 675 555 660 q 431 713 520 713 q 217 627 292 713 q 165 591 186 591 q 138 602 150 591 q 127 627 127 613 q 228 715 127 670 q 477 759 324 759 q 831 683 728 759 q 889 608 876 650 q 903 463 903 567 l 903 193 q 907 81 900 119 q 939 0 914 43 l 559 0 l 559 71 q 436 7 497 28 q 315 -15 374 -15 q 135 44 214 -15 q 33 245 33 121 q 115 421 33 354 q 354 500 212 500 q 457 490 412 500 q 559 452 502 479 m 560 403 q 428 446 475 446 q 376 414 389 446 q 370 316 370 397 l 370 154 q 373 89 370 100 q 419 58 380 58 q 489 76 450 58 q 559 125 527 95 l 560 403 m 760 823 l 506 823 l 408 964 l 314 853 q 264 814 281 814 q 246 833 246 814 q 268 867 246 840 l 281 882 l 387 1005 l 620 1005 l 760 823 z "},"ä":{"ha":978,"x_min":33,"x_max":939,"o":"m 559 452 l 559 534 q 557 640 559 621 q 545 675 555 660 q 431 713 520 713 q 217 627 292 713 q 165 591 186 591 q 138 602 150 591 q 127 627 127 613 q 228 715 127 670 q 477 759 324 759 q 831 683 728 759 q 889 608 876 650 q 903 463 903 567 l 903 193 q 907 81 900 119 q 939 0 914 43 l 559 0 l 559 71 q 436 7 497 28 q 315 -15 374 -15 q 135 44 214 -15 q 33 245 33 121 q 115 421 33 354 q 354 500 212 500 q 457 490 412 500 q 559 452 502 479 m 560 403 q 428 446 475 446 q 376 414 389 446 q 370 316 370 397 l 370 154 q 373 89 370 100 q 419 58 380 58 q 489 76 450 58 q 559 125 527 95 l 560 403 m 669 1014 q 765 988 729 1014 q 801 920 801 963 q 764 849 801 876 q 669 821 728 821 q 574 847 611 821 q 538 916 538 873 q 573 986 538 960 q 669 1014 609 1013 m 331 1014 q 427 988 391 1014 q 463 920 463 963 q 427 849 463 876 q 332 821 390 821 q 237 847 273 821 q 200 916 200 873 q 236 986 200 960 q 331 1014 271 1013 z "},"ã":{"ha":978,"x_min":33,"x_max":939,"o":"m 559 452 l 559 534 q 557 640 559 621 q 545 675 555 660 q 431 713 520 713 q 217 627 292 713 q 165 591 186 591 q 138 602 150 591 q 127 627 127 613 q 228 715 127 670 q 477 759 324 759 q 831 683 728 759 q 889 608 876 650 q 903 463 903 567 l 903 193 q 907 81 900 119 q 939 0 914 43 l 559 0 l 559 71 q 436 7 497 28 q 315 -15 374 -15 q 135 44 214 -15 q 33 245 33 121 q 115 421 33 354 q 354 500 212 500 q 457 490 412 500 q 559 452 502 479 m 560 403 q 428 446 475 446 q 376 414 389 446 q 370 316 370 397 l 370 154 q 373 89 370 100 q 419 58 380 58 q 489 76 450 58 q 559 125 527 95 l 560 403 m 429 1023 l 719 955 l 776 1006 q 799 1019 791 1019 q 813 1013 806 1019 q 820 999 820 1006 q 804 977 820 992 l 633 813 l 338 882 l 279 829 q 254 817 264 817 q 240 823 246 817 q 233 836 233 829 q 249 861 233 846 l 429 1023 z "},"å":{"ha":978,"x_min":33,"x_max":939,"o":"m 559 452 l 559 534 q 557 640 559 621 q 545 675 555 660 q 431 713 520 713 q 217 627 292 713 q 165 591 186 591 q 138 602 150 591 q 127 627 127 613 q 228 715 127 670 q 477 759 324 759 q 831 683 728 759 q 889 608 876 650 q 903 463 903 567 l 903 193 q 907 81 900 119 q 939 0 914 43 l 559 0 l 559 71 q 436 7 497 28 q 315 -15 374 -15 q 135 44 214 -15 q 33 245 33 121 q 115 421 33 354 q 354 500 212 500 q 457 490 412 500 q 559 452 502 479 m 560 403 q 428 446 475 446 q 376 414 389 446 q 370 316 370 397 l 370 154 q 373 89 370 100 q 419 58 380 58 q 489 76 450 58 q 559 125 527 95 l 560 403 m 498 1087 q 599 1047 559 1087 q 639 949 639 1007 q 597 853 639 892 q 495 814 556 814 q 396 852 435 814 q 357 950 357 890 q 397 1048 357 1009 q 498 1087 437 1086 m 467 865 q 490 860 480 862 q 507 859 500 859 q 569 886 542 859 q 595 951 595 914 q 568 1017 595 989 q 507 1044 541 1044 q 490 1042 500 1044 q 467 1036 480 1040 l 467 865 z "},"ç":{"ha":783,"x_min":33,"x_max":789,"o":"m 429 -15 l 391 -96 q 416 -94 408 -94 q 539 -197 539 -94 q 501 -276 539 -247 q 399 -305 463 -305 q 309 -280 343 -305 q 282 -241 282 -260 q 288 -228 282 -234 q 301 -222 294 -222 q 315 -229 307 -222 q 355 -256 342 -250 q 387 -262 368 -262 q 416 -256 399 -262 l 416 -134 q 393 -131 401 -131 q 368 -136 382 -131 q 347 -140 355 -140 q 332 -125 332 -140 q 349 -83 332 -119 l 382 -13 q 196 55 275 -2 q 77 190 121 109 q 33 372 33 275 q 163 661 33 546 q 431 759 272 759 q 654 699 559 759 q 721 643 695 673 q 747 593 747 614 q 739 576 747 583 q 721 569 731 569 q 685 602 707 569 q 587 681 654 647 q 460 714 519 714 q 409 692 420 714 q 397 593 397 670 l 397 141 l 397 98 q 407 42 397 56 q 449 28 418 28 q 608 77 524 28 q 732 208 680 120 q 762 233 747 233 q 780 224 772 233 q 789 205 789 215 q 732 118 789 174 q 611 28 675 62 q 429 -15 524 -16 z "},"é":{"ha":831,"x_min":33,"x_max":805,"o":"m 349 349 l 349 138 q 357 61 349 77 q 424 30 371 30 q 579 73 503 30 q 713 192 656 116 q 739 224 731 217 q 757 231 747 231 q 776 222 768 231 q 783 201 783 214 q 738 124 783 172 q 590 24 678 62 q 417 -15 501 -15 q 162 82 273 -15 q 63 222 98 139 q 33 369 33 296 q 60 510 33 439 q 134 633 87 581 q 264 726 189 693 q 419 759 338 759 q 646 685 545 759 q 804 351 805 570 l 646 351 l 442 350 l 349 349 m 523 393 l 523 591 q 520 668 522 655 q 511 691 519 680 q 433 718 492 718 q 359 687 374 718 q 349 591 349 669 l 349 393 l 432 391 l 523 393 m 319 817 l 385 1002 l 624 1002 l 477 817 l 319 817 z "},"è":{"ha":831,"x_min":33,"x_max":805,"o":"m 349 349 l 349 138 q 357 61 349 77 q 424 30 371 30 q 579 73 503 30 q 713 192 656 116 q 739 224 731 217 q 757 231 747 231 q 776 222 768 231 q 783 201 783 214 q 738 124 783 172 q 590 24 678 62 q 417 -15 501 -15 q 162 82 273 -15 q 63 222 98 139 q 33 369 33 296 q 60 510 33 439 q 134 633 87 581 q 264 726 189 693 q 419 759 338 759 q 646 685 545 759 q 804 351 805 570 l 646 351 l 442 350 l 349 349 m 523 393 l 523 591 q 520 668 522 655 q 511 691 519 680 q 433 718 492 718 q 359 687 374 718 q 349 591 349 669 l 349 393 l 432 391 l 523 393 m 532 817 l 373 817 l 227 1002 l 465 1002 l 532 817 z "},"ê":{"ha":831,"x_min":33,"x_max":805,"o":"m 349 349 l 349 138 q 357 61 349 77 q 424 30 371 30 q 579 73 503 30 q 713 192 656 116 q 739 224 731 217 q 757 231 747 231 q 776 222 768 231 q 783 201 783 214 q 738 124 783 172 q 590 24 678 62 q 417 -15 501 -15 q 162 82 273 -15 q 63 222 98 139 q 33 369 33 296 q 60 510 33 439 q 134 633 87 581 q 264 726 189 693 q 419 759 338 759 q 646 685 545 759 q 804 351 805 570 l 646 351 l 442 350 l 349 349 m 523 393 l 523 591 q 520 668 522 655 q 511 691 519 680 q 433 718 492 718 q 359 687 374 718 q 349 591 349 669 l 349 393 l 432 391 l 523 393 m 696 823 l 441 823 l 343 964 l 250 853 q 200 814 217 814 q 182 833 182 814 q 203 867 182 840 l 216 882 l 323 1005 l 555 1005 l 696 823 z "},"ë":{"ha":831,"x_min":33,"x_max":805,"o":"m 349 349 l 349 138 q 357 61 349 77 q 424 30 371 30 q 579 73 503 30 q 713 192 656 116 q 739 224 731 217 q 757 231 747 231 q 776 222 768 231 q 783 201 783 214 q 738 124 783 172 q 590 24 678 62 q 417 -15 501 -15 q 162 82 273 -15 q 63 222 98 139 q 33 369 33 296 q 60 510 33 439 q 134 633 87 581 q 264 726 189 693 q 419 759 338 759 q 646 685 545 759 q 804 351 805 570 l 646 351 l 442 350 l 349 349 m 523 393 l 523 591 q 520 668 522 655 q 511 691 519 680 q 433 718 492 718 q 359 687 374 718 q 349 591 349 669 l 349 393 l 432 391 l 523 393 m 597 1014 q 692 988 656 1014 q 728 920 728 963 q 692 849 728 876 q 597 821 655 821 q 502 847 538 821 q 465 916 465 873 q 501 986 465 960 q 597 1014 536 1013 m 258 1014 q 355 988 319 1014 q 391 920 391 963 q 354 849 391 876 q 259 821 317 821 q 164 847 201 821 q 127 916 127 873 q 163 986 127 960 q 258 1014 199 1013 z "},"í":{"ha":510,"x_min":79,"x_max":466,"o":"m 428 741 l 428 721 l 427 615 l 425 451 l 423 201 l 426 61 l 427 0 l 79 0 l 82 250 l 84 470 l 83 586 l 81 715 l 81 741 l 428 741 m 161 817 l 227 1002 l 466 1002 l 319 817 l 161 817 z "},"ì":{"ha":510,"x_min":53,"x_max":431,"o":"m 431 741 l 431 721 l 429 615 l 428 451 l 426 201 l 429 61 l 430 0 l 81 0 l 85 250 l 87 470 l 85 586 l 83 715 l 84 741 l 431 741 m 358 817 l 199 817 l 53 1002 l 292 1002 l 358 817 z "},"î":{"ha":510,"x_min":3,"x_max":517,"o":"m 430 741 l 430 721 l 429 615 l 427 451 l 425 201 l 428 61 l 429 0 l 81 0 l 84 250 l 86 470 l 85 586 l 83 715 l 83 741 l 430 741 m 517 823 l 262 823 l 164 964 l 71 853 q 21 814 38 814 q 3 833 3 814 q 24 867 3 840 l 37 882 l 144 1005 l 376 1005 l 517 823 z "},"ï":{"ha":510,"x_min":-47,"x_max":554,"o":"m 428 741 l 428 721 l 427 615 l 425 451 l 423 201 l 426 61 l 427 0 l 79 0 l 82 250 l 84 470 l 83 586 l 81 715 l 81 741 l 428 741 m 422 1014 q 518 988 482 1014 q 554 920 554 963 q 517 849 554 876 q 422 821 481 821 q 328 847 364 821 q 291 916 291 873 q 327 986 291 960 q 422 1014 362 1013 m 84 1014 q 180 988 144 1014 q 216 920 216 963 q 180 849 216 876 q 85 821 143 821 q -10 847 26 821 q -47 916 -47 873 q -11 986 -47 960 q 84 1014 24 1013 z "},"ñ":{"ha":1047,"x_min":79,"x_max":977,"o":"m 426 741 l 426 646 q 581 731 505 703 q 729 759 657 759 q 892 715 825 759 q 959 632 942 682 q 977 472 977 583 l 975 158 l 977 0 l 632 0 l 635 189 l 637 327 l 636 536 q 634 622 635 608 q 628 647 633 636 q 581 669 617 669 q 509 650 548 669 q 426 593 471 631 l 425 565 l 424 374 l 422 229 l 425 29 l 425 0 l 79 0 l 81 266 l 83 441 l 81 593 l 79 741 l 426 741 m 440 1023 l 730 955 l 787 1006 q 810 1019 802 1019 q 824 1013 817 1019 q 831 999 831 1006 q 815 977 831 992 l 644 813 l 349 882 l 290 829 q 264 817 275 817 q 251 823 257 817 q 244 836 244 829 q 260 861 244 846 l 440 1023 z "},"ó":{"ha":832,"x_min":33,"x_max":804,"o":"m 418 759 q 625 699 527 759 q 762 547 715 643 q 804 367 804 462 q 780 236 804 302 q 712 119 755 170 q 566 14 652 50 q 419 -15 496 -15 q 189 61 291 -15 q 67 211 109 119 q 33 374 33 288 q 155 654 33 543 q 418 759 269 757 m 398 715 l 396 31 q 425 30 417 30 q 606 83 519 30 q 730 220 688 134 q 762 369 762 288 q 642 634 762 532 q 429 716 544 716 q 398 715 420 716 m 310 817 l 376 1002 l 615 1002 l 469 817 l 310 817 z "},"ò":{"ha":832,"x_min":33,"x_max":804,"o":"m 418 759 q 625 699 527 759 q 762 547 715 643 q 804 367 804 462 q 780 236 804 302 q 712 119 755 170 q 566 14 652 50 q 419 -15 496 -15 q 189 61 291 -15 q 67 211 109 119 q 33 374 33 288 q 155 654 33 543 q 418 759 269 757 m 398 715 l 396 31 q 425 30 417 30 q 606 83 519 30 q 730 220 688 134 q 762 369 762 288 q 642 634 762 532 q 429 716 544 716 q 398 715 420 716 m 518 817 l 359 817 l 213 1002 l 452 1002 l 518 817 z "},"ô":{"ha":832,"x_min":33,"x_max":804,"o":"m 418 759 q 625 699 527 759 q 762 547 715 643 q 804 367 804 462 q 780 236 804 302 q 712 119 755 170 q 566 14 652 50 q 419 -15 496 -15 q 189 61 291 -15 q 67 211 109 119 q 33 374 33 288 q 155 654 33 543 q 418 759 269 757 m 398 715 l 396 31 q 425 30 417 30 q 606 83 519 30 q 730 220 688 134 q 762 369 762 288 q 642 634 762 532 q 429 716 544 716 q 398 715 420 716 m 682 823 l 428 823 l 330 964 l 236 853 q 186 814 203 814 q 168 833 168 814 q 190 867 168 840 l 203 882 l 309 1005 l 542 1005 l 682 823 z "},"ö":{"ha":832,"x_min":33,"x_max":804,"o":"m 418 759 q 625 699 527 759 q 762 547 715 643 q 804 367 804 462 q 780 236 804 302 q 712 119 755 170 q 566 14 652 50 q 419 -15 496 -15 q 189 61 291 -15 q 67 211 109 119 q 33 374 33 288 q 155 654 33 543 q 418 759 269 757 m 398 715 l 396 31 q 425 30 417 30 q 606 83 519 30 q 730 220 688 134 q 762 369 762 288 q 642 634 762 532 q 429 716 544 716 q 398 715 420 716 m 587 1014 q 683 988 647 1014 q 719 920 719 963 q 682 849 719 876 q 587 821 646 821 q 492 847 529 821 q 456 916 456 873 q 491 986 456 960 q 587 1014 527 1013 m 249 1014 q 345 988 309 1014 q 381 920 381 963 q 345 849 381 876 q 250 821 308 821 q 155 847 191 821 q 118 916 118 873 q 154 986 118 960 q 249 1014 189 1013 z "},"õ":{"ha":832,"x_min":33,"x_max":804,"o":"m 418 759 q 625 699 527 759 q 762 547 715 643 q 804 367 804 462 q 780 236 804 302 q 712 119 755 170 q 566 14 652 50 q 419 -15 496 -15 q 189 61 291 -15 q 67 211 109 119 q 33 374 33 288 q 155 654 33 543 q 418 759 269 757 m 398 715 l 396 31 q 425 30 417 30 q 606 83 519 30 q 730 220 688 134 q 762 369 762 288 q 642 634 762 532 q 429 716 544 716 q 398 715 420 716 m 338 1023 l 627 955 l 684 1006 q 707 1019 699 1019 q 722 1013 715 1019 q 728 999 728 1006 q 713 977 728 992 l 542 813 l 246 882 l 187 829 q 162 817 173 817 q 148 823 155 817 q 142 836 142 829 q 157 861 142 846 l 338 1023 z "},"ú":{"ha":1048,"x_min":69,"x_max":970,"o":"m 970 741 l 968 208 l 970 0 l 623 0 l 623 96 q 466 11 537 37 q 318 -15 395 -15 q 113 69 176 -15 q 80 140 89 100 q 71 253 71 180 l 72 412 l 73 517 l 69 741 l 416 741 l 412 400 l 413 271 l 414 184 q 423 91 414 106 q 467 73 435 73 q 534 90 499 73 q 625 151 569 107 l 625 239 l 627 481 l 623 720 l 623 741 l 970 741 m 418 817 l 484 1002 l 723 1002 l 576 817 l 418 817 z "},"ù":{"ha":1048,"x_min":69,"x_max":970,"o":"m 970 741 l 968 208 l 970 0 l 623 0 l 623 96 q 466 11 537 37 q 318 -15 395 -15 q 113 69 176 -15 q 80 140 89 100 q 71 253 71 180 l 72 412 l 73 517 l 69 741 l 416 741 l 412 400 l 413 271 l 414 184 q 423 91 414 106 q 467 73 435 73 q 534 90 499 73 q 625 151 569 107 l 625 239 l 627 481 l 623 720 l 623 741 l 970 741 m 626 817 l 467 817 l 321 1002 l 559 1002 l 626 817 z "},"û":{"ha":1048,"x_min":69,"x_max":970,"o":"m 970 741 l 968 208 l 970 0 l 623 0 l 623 96 q 466 11 537 37 q 318 -15 395 -15 q 113 69 176 -15 q 80 140 89 100 q 71 253 71 180 l 72 412 l 73 517 l 69 741 l 416 741 l 412 400 l 413 271 l 414 184 q 423 91 414 106 q 467 73 435 73 q 534 90 499 73 q 625 151 569 107 l 625 239 l 627 481 l 623 720 l 623 741 l 970 741 m 781 823 l 527 823 l 429 964 l 335 853 q 286 814 302 814 q 267 833 267 814 q 289 867 267 840 l 302 882 l 408 1005 l 641 1005 l 781 823 z "},"ü":{"ha":1048,"x_min":69,"x_max":970,"o":"m 970 741 l 968 208 l 970 0 l 623 0 l 623 96 q 466 11 537 37 q 318 -15 395 -15 q 113 69 176 -15 q 80 140 89 100 q 71 253 71 180 l 72 412 l 73 517 l 69 741 l 416 741 l 412 400 l 413 271 l 414 184 q 423 91 414 106 q 467 73 435 73 q 534 90 499 73 q 625 151 569 107 l 625 239 l 627 481 l 623 720 l 623 741 l 970 741 m 688 1014 q 784 988 748 1014 q 820 920 820 963 q 783 849 820 876 q 688 821 747 821 q 593 847 630 821 q 557 916 557 873 q 592 986 557 960 q 688 1014 628 1013 m 350 1014 q 446 988 410 1014 q 482 920 482 963 q 446 849 482 876 q 351 821 409 821 q 256 847 292 821 q 219 916 219 873 q 255 986 219 960 q 350 1014 290 1013 z "},"†":{"ha":898,"x_min":65,"x_max":833,"o":"m 257 -62 l 258 -7 l 262 430 l 260 667 l 159 666 l 109 666 q 65 690 65 666 q 107 717 65 717 l 156 716 l 260 715 l 259 801 l 258 926 l 641 926 l 642 891 l 640 801 l 639 715 l 743 716 l 791 717 q 833 690 833 717 q 790 666 833 666 l 740 666 l 638 667 l 637 556 l 637 430 l 641 -7 l 642 -62 l 257 -62 z "},"°":{"ha":437,"x_min":37,"x_max":406,"o":"m 221 926 q 351 873 297 926 q 406 747 406 821 q 351 621 406 673 q 222 568 298 568 q 90 621 144 568 q 37 749 37 673 q 91 873 37 822 q 221 926 145 925 m 221 892 q 116 849 160 892 q 73 749 73 807 q 116 644 73 686 q 222 602 160 602 q 326 644 282 602 q 369 747 369 687 q 326 849 369 808 q 221 892 282 891 z "},"¢":{"ha":898,"x_min":90,"x_max":847,"o":"m 454 111 l 454 88 l 455 78 q 469 37 458 47 q 507 27 479 27 q 666 77 583 27 q 791 208 739 120 q 820 233 806 233 q 839 224 830 233 q 847 205 847 215 q 808 136 847 180 q 716 56 768 92 q 486 -15 610 -15 q 471 -15 479 -15 q 454 -14 463 -14 l 454 -75 q 454 -93 454 -81 l 454 -115 l 455 -134 q 456 -153 456 -143 q 429 -190 456 -190 q 404 -162 404 -190 l 404 -127 l 404 -92 l 404 -55 l 404 -7 q 254 55 326 3 q 135 190 178 109 q 90 372 90 275 q 178 618 90 513 q 404 751 265 724 l 404 848 q 407 920 404 911 q 427 935 412 935 q 454 904 452 935 q 454 800 455 878 l 454 758 l 487 759 q 713 699 617 759 q 779 643 753 673 q 805 593 805 614 q 797 576 805 584 q 779 569 789 569 q 743 602 765 569 q 645 681 712 647 q 518 714 578 714 q 467 692 478 714 q 455 593 455 670 l 455 141 l 454 111 z "},"£":{"ha":898,"x_min":51,"x_max":884,"o":"m 506 492 l 707 492 q 757 492 750 492 q 785 466 785 488 q 743 439 785 439 l 695 440 l 614 440 l 510 441 q 516 300 516 339 q 495 161 516 209 q 420 81 474 113 q 279 37 355 43 q 422 -14 352 15 q 510 -46 481 -39 q 578 -53 538 -53 q 745 -5 674 -53 q 828 115 816 41 q 859 149 834 149 q 884 121 884 149 q 866 56 884 92 q 817 -9 848 20 q 581 -99 724 -99 q 498 -89 537 -99 q 388 -50 460 -79 q 199 5 256 5 q 104 -19 165 5 q 80 -23 93 -23 q 52 1 52 -23 q 83 33 52 22 q 127 45 92 37 q 180 83 165 54 q 195 180 195 113 q 184 391 195 245 l 180 441 l 125 441 l 97 441 q 51 469 51 441 q 92 494 51 494 l 115 493 l 176 492 l 173 588 q 259 856 173 774 q 507 943 350 943 q 752 867 648 943 q 810 800 810 825 q 802 783 810 791 q 785 774 793 774 q 745 802 770 774 q 629 854 698 854 q 530 807 561 854 q 500 654 500 760 l 505 507 l 506 492 z "},"§":{"ha":898,"x_min":79,"x_max":819,"o":"m 673 293 q 758 225 728 269 q 788 127 788 182 q 732 -5 788 51 q 465 -90 649 -90 q 185 -34 303 -90 q 123 26 123 -5 q 131 44 123 36 q 148 53 138 53 q 203 20 159 53 q 316 -28 243 -10 q 473 -45 389 -45 q 634 -12 580 -45 q 666 33 666 7 q 621 80 666 64 q 511 104 608 85 q 307 148 362 134 q 205 182 252 161 q 79 351 79 236 q 224 571 79 496 q 138 635 165 597 q 111 730 111 673 q 222 909 111 846 q 429 954 300 954 q 626 929 540 954 q 711 871 711 904 q 686 845 711 845 q 630 870 674 845 q 538 899 599 888 q 412 910 477 910 q 284 888 333 910 q 238 831 238 867 q 300 774 238 793 q 519 725 347 760 q 681 679 622 705 q 773 616 739 654 q 819 486 819 564 q 788 381 819 423 q 673 293 756 340 m 267 553 q 189 465 189 516 q 277 385 189 408 l 515 331 l 630 306 q 693 354 672 330 q 713 403 713 378 q 648 463 713 446 q 479 502 597 477 q 267 553 354 528 z "},"•":{"ha":926,"x_min":272,"x_max":657,"o":"m 467 663 q 600 607 544 663 q 657 471 657 551 q 600 334 657 391 q 465 278 545 278 q 329 334 385 278 q 272 470 272 391 q 329 607 272 552 q 467 663 386 663 z "},"¶":{"ha":898,"x_min":108,"x_max":720,"o":"m 390 -142 l 390 431 l 368 431 q 223 468 286 431 q 139 554 170 499 q 108 676 108 610 q 139 800 108 743 q 225 888 171 857 q 405 926 292 926 l 720 926 l 720 884 l 648 884 l 648 -142 l 601 -142 l 601 884 l 437 884 l 437 -142 l 390 -142 z "},"ß":{"ha":994,"x_min":54,"x_max":966,"o":"m 833 407 q 913 332 887 375 q 940 233 940 288 q 877 68 940 138 q 696 -7 807 -7 q 532 77 590 -7 q 508 140 508 113 q 534 163 508 163 q 553 156 548 163 q 575 108 559 149 q 621 56 589 75 q 699 37 654 37 q 843 101 787 37 q 892 233 892 156 q 862 326 892 285 q 779 388 831 368 q 710 380 739 380 q 603 438 603 380 q 614 453 603 453 q 632 446 621 453 q 720 425 669 425 q 842 463 788 425 q 921 623 921 518 q 842 799 921 728 q 673 865 769 865 q 530 813 584 865 q 494 752 505 788 q 484 654 484 716 l 485 519 l 487 332 q 481 163 487 229 q 460 0 476 98 l 54 0 q 83 370 85 183 q 87 602 84 540 q 102 706 91 665 q 239 879 136 823 q 521 936 342 936 q 878 829 763 936 q 966 626 966 747 q 934 497 966 550 q 833 407 902 444 z "},"®":{"ha":1107,"x_min":76,"x_max":1031,"o":"m 559 941 q 803 870 688 941 q 979 680 918 800 q 1031 463 1031 577 q 960 214 1031 329 q 770 38 890 99 q 553 -14 668 -14 q 304 56 419 -14 q 128 246 190 126 q 76 462 76 349 q 146 713 76 597 q 337 889 215 827 q 559 941 438 941 m 559 909 q 241 779 371 909 q 144 633 178 717 q 111 462 111 551 q 176 229 111 336 q 353 65 241 122 q 553 16 447 16 q 785 82 678 16 q 948 260 891 148 q 996 463 996 355 q 931 696 996 589 q 754 861 867 802 q 559 909 666 907 m 657 272 q 838 206 749 219 q 854 189 854 203 q 829 172 854 172 q 707 205 782 172 q 549 299 632 239 l 549 292 l 550 224 l 550 180 l 276 180 l 277 203 l 279 490 l 277 736 l 457 736 q 634 730 575 736 q 737 707 694 724 q 848 618 807 680 q 886 498 886 562 q 821 345 886 410 q 657 272 755 280 m 603 305 q 622 304 616 304 q 770 349 710 304 q 827 416 806 376 q 848 499 848 456 q 776 644 848 587 q 689 685 739 673 q 553 699 638 698 l 549 362 l 549 346 q 603 305 574 323 z "},"©":{"ha":1107,"x_min":76,"x_max":1031,"o":"m 559 941 q 803 870 688 941 q 979 680 918 800 q 1031 463 1031 577 q 960 214 1031 329 q 770 38 890 99 q 553 -14 668 -14 q 304 56 419 -14 q 128 246 190 126 q 76 462 76 349 q 146 713 76 597 q 337 889 215 827 q 559 941 438 941 m 559 909 q 241 779 371 909 q 144 633 178 717 q 111 462 111 551 q 176 229 111 336 q 353 65 241 122 q 553 16 447 16 q 785 82 678 16 q 948 260 891 148 q 996 463 996 355 q 931 696 996 589 q 754 861 867 802 q 559 909 666 907 m 538 721 l 536 448 l 538 204 q 569 202 554 202 q 711 239 647 202 q 817 345 776 276 q 839 361 827 361 q 858 346 858 361 q 837 303 858 332 q 788 250 815 274 q 568 169 696 169 q 351 248 445 169 q 276 345 303 288 q 249 463 249 402 q 279 588 249 528 q 363 689 309 648 q 567 757 452 757 q 787 677 694 757 q 831 621 831 639 q 826 609 831 614 q 813 604 820 604 q 789 621 802 604 q 564 723 706 723 q 538 721 549 723 z "},"™":{"ha":1453,"x_min":0,"x_max":1449,"o":"m 448 890 l 446 769 l 445 650 l 446 370 l 172 370 l 175 694 l 174 802 l 172 890 l 119 888 l 37 886 l 26 886 q 0 905 0 886 q 7 921 0 918 q 38 926 14 925 l 570 926 q 609 922 600 926 q 617 905 617 918 q 591 887 617 887 l 553 888 l 497 889 l 448 890 m 1263 950 l 1360 643 l 1403 511 l 1442 391 l 1449 370 l 1175 370 l 1093 648 l 916 401 l 734 635 q 679 432 709 555 q 662 373 668 383 q 637 363 656 363 q 614 380 614 363 q 627 421 614 384 l 654 507 l 701 654 l 794 950 l 1034 631 l 1263 950 z "},"´":{"ha":694,"x_min":241,"x_max":546,"o":"m 241 817 l 307 1002 l 546 1002 l 399 817 l 241 817 z "},"¨":{"ha":694,"x_min":47,"x_max":648,"o":"m 516 1014 q 612 988 576 1014 q 648 920 648 963 q 611 849 648 876 q 516 821 574 821 q 421 847 458 821 q 385 916 385 873 q 420 986 385 960 q 516 1014 456 1013 m 178 1014 q 274 988 238 1014 q 310 920 310 963 q 273 849 310 876 q 178 821 237 821 q 83 847 120 821 q 47 916 47 873 q 82 986 47 960 q 178 1014 118 1013 z "},"≠":{"ha":898,"x_min":65,"x_max":833,"o":"m 370 343 l 298 342 l 228 341 l 193 340 l 159 340 l 108 340 q 65 366 65 340 q 108 394 65 394 l 156 393 l 323 390 l 392 390 l 401 409 l 449 513 l 456 529 l 450 529 l 228 527 l 159 526 l 108 526 q 65 551 65 526 q 108 579 65 579 l 156 578 l 387 574 l 450 575 l 477 575 l 495 614 l 513 653 l 548 731 q 581 801 574 790 q 602 811 588 811 q 623 787 623 811 q 593 714 623 774 l 562 645 l 529 575 l 587 575 l 743 578 l 791 579 q 833 551 833 579 q 791 526 833 526 l 705 526 l 671 527 l 589 528 l 507 528 l 488 488 l 443 390 l 547 390 l 743 393 l 791 394 q 833 366 833 394 q 791 340 833 340 l 705 341 l 671 341 l 450 344 l 422 343 l 404 304 l 386 265 l 350 186 q 316 119 323 129 q 298 109 310 109 q 282 117 289 109 q 275 135 275 124 q 304 205 275 147 l 353 309 l 370 343 z "},"Æ":{"ha":1598,"x_min":-10,"x_max":1596,"o":"m 1155 625 l 1154 441 l 1158 44 l 1411 47 l 1459 47 l 1520 48 l 1560 50 q 1596 25 1596 50 q 1586 4 1596 9 q 1538 0 1575 0 l 744 0 l 744 179 l 585 180 l 416 182 l 194 180 l 123 90 q 53 6 73 25 q 16 -13 33 -13 q -10 5 -10 -13 q 19 50 -10 16 l 212 283 l 408 517 l 747 926 l 1490 926 q 1532 921 1524 925 q 1539 902 1539 918 q 1510 876 1539 876 q 1487 877 1502 876 l 1272 881 l 1155 881 l 1155 668 l 1261 668 l 1457 671 l 1541 672 q 1573 649 1573 672 q 1535 622 1573 622 l 1525 623 l 1442 623 l 1261 625 l 1155 625 m 745 852 l 237 233 q 536 228 290 229 q 744 233 708 230 l 747 543 l 745 852 z "},"Ø":{"ha":1051,"x_min":37,"x_max":1019,"o":"m 848 834 q 1019 463 1019 679 q 897 139 1019 279 q 732 18 829 61 q 528 -28 633 -28 q 220 78 365 -28 l 167 14 q 139 -18 146 -12 q 123 -24 132 -24 q 97 1 97 -24 q 101 15 97 9 q 130 54 105 22 l 180 115 q 37 465 37 266 q 190 821 37 677 q 526 954 332 954 q 804 869 680 954 l 844 919 q 876 953 866 945 q 895 961 885 961 q 914 953 905 961 q 922 936 922 945 q 918 922 922 928 q 886 882 913 915 l 848 834 m 821 802 l 473 351 l 473 18 q 526 14 500 14 q 769 85 656 14 q 934 275 879 155 q 976 462 976 364 q 821 802 976 659 m 775 836 q 526 911 663 911 q 473 907 500 911 l 473 437 l 775 836 z "},"∞":{"ha":926,"x_min":-30,"x_max":956,"o":"m 385 311 q 289 221 332 247 q 191 195 246 195 q 27 273 90 195 q -30 452 -30 342 q 56 682 -30 593 q 241 757 129 757 q 376 720 318 757 q 485 603 435 683 q 572 719 515 677 q 703 760 629 760 q 899 665 827 760 q 956 472 956 589 q 866 244 956 329 q 769 184 826 206 q 655 162 713 162 q 385 311 497 162 m 524 549 q 784 342 643 342 q 871 376 837 342 q 911 470 911 414 q 860 556 911 528 q 708 585 810 585 q 566 566 609 585 l 524 549 m 334 382 q 228 530 277 486 q 119 574 178 574 q 39 538 66 574 q 14 458 14 503 q 59 389 14 412 q 197 366 105 366 q 293 374 251 366 q 334 382 325 381 z "},"±":{"ha":898,"x_min":64,"x_max":833,"o":"m 604 511 l 603 481 l 604 400 l 607 282 l 294 282 l 297 400 l 298 481 l 298 511 l 237 511 l 110 510 q 66 536 66 509 q 110 564 66 564 l 170 563 l 298 563 l 298 593 l 297 673 l 294 791 l 607 791 l 604 673 l 603 593 l 604 563 l 744 563 l 793 564 q 831 537 831 564 q 793 510 831 510 l 734 511 l 695 511 l 604 511 m 705 155 l 158 153 l 108 153 q 64 177 64 153 q 107 203 64 203 l 155 202 l 363 200 l 736 203 l 789 204 q 833 178 833 204 q 787 153 833 153 l 705 155 z "},"≤":{"ha":694,"x_min":51,"x_max":644,"o":"m 644 909 l 644 796 l 357 621 l 644 421 l 644 120 l 51 532 l 51 545 l 644 909 m 51 100 l 644 100 l 644 0 l 51 0 l 51 100 z "},"≥":{"ha":694,"x_min":51,"x_max":644,"o":"m 51 100 l 644 100 l 644 0 l 51 0 l 51 100 m 51 120 l 51 233 l 338 409 l 51 608 l 51 909 l 644 490 l 644 475 l 51 120 z "},"¥":{"ha":898,"x_min":2,"x_max":906,"o":"m 677 487 l 808 487 q 854 461 854 487 q 810 437 854 437 l 665 437 q 665 406 665 417 l 664 374 l 664 301 l 808 301 q 854 275 854 301 q 810 251 854 251 l 665 251 l 669 14 l 669 0 l 296 0 l 296 22 l 300 229 l 300 251 l 132 251 q 86 275 86 251 q 132 301 86 301 l 300 301 l 301 319 l 301 376 l 302 406 l 302 437 l 132 437 q 86 461 86 437 q 132 487 86 487 l 291 487 q 254 549 275 517 q 2 926 141 728 l 423 926 l 650 526 l 835 881 q 861 930 854 922 q 879 939 867 939 q 898 932 890 939 q 906 916 906 925 q 899 892 906 905 q 887 871 894 882 l 867 839 l 677 487 z "},"µ":{"ha":1048,"x_min":69,"x_max":970,"o":"m 329 59 l 362 -31 l 69 -31 l 71 212 l 72 326 l 73 492 l 69 741 l 416 741 l 412 437 l 413 345 l 414 258 q 424 165 414 180 q 467 147 435 147 q 534 164 499 147 q 625 224 569 181 l 626 519 l 624 640 l 623 720 l 623 741 l 970 741 l 968 208 l 970 0 l 623 0 l 623 170 q 329 59 470 63 z "},"∂":{"ha":694,"x_min":23,"x_max":671,"o":"m 176 955 l 189 981 q 429 847 321 939 q 562 696 512 777 q 671 319 671 517 q 551 42 671 140 q 347 -23 470 -23 q 140 47 222 -23 q 23 319 23 146 q 142 591 23 499 q 352 654 225 654 q 393 652 362 654 q 422 648 410 652 q 176 955 338 851 m 348 605 q 282 563 299 605 q 265 401 265 521 q 280 93 265 159 q 348 26 294 26 q 415 85 400 26 q 429 355 429 144 q 414 557 429 510 q 348 605 399 604 z "},"∑":{"ha":926,"x_min":33,"x_max":905,"o":"m 33 926 l 848 926 l 848 662 l 816 662 q 752 814 805 760 q 614 868 699 868 l 346 868 l 596 432 l 237 -172 l 594 -172 q 713 -153 669 -172 q 873 60 840 -98 l 905 60 l 859 -324 l 33 -324 l 402 296 l 33 926 z "},"∏":{"ha":926,"x_min":-98,"x_max":1024,"o":"m -98 926 l 1024 926 l 1024 895 l 993 895 q 921 871 941 895 q 901 785 901 847 l 901 -182 q 920 -269 901 -244 q 989 -293 939 -293 l 1023 -293 l 1023 -324 l 484 -324 l 484 -293 l 513 -293 q 586 -269 566 -293 q 606 -182 606 -245 l 606 785 q 586 871 606 847 q 513 895 566 895 l 415 895 q 343 871 363 895 q 323 785 323 847 l 323 -182 q 342 -269 323 -244 q 412 -293 362 -293 l 445 -293 l 445 -324 l -94 -324 l -94 -293 l -64 -293 q 8 -269 -12 -293 q 28 -182 28 -245 l 28 785 q 8 871 28 847 q -64 895 -12 895 l -98 895 l -98 926 z "},"π":{"ha":694,"x_min":-68,"x_max":782,"o":"m 782 671 l 782 521 l 643 521 q 630 475 633 494 q 627 419 627 456 l 627 209 q 640 110 627 134 q 692 85 652 85 q 743 90 708 85 l 743 57 l 475 -16 q 455 -20 459 -20 q 417 1 440 -20 q 380 49 395 22 q 363 137 363 81 l 363 334 q 425 482 363 420 q 467 508 442 497 q 492 521 477 513 l 282 521 l 276 410 q 251 177 269 286 q 213 29 233 69 q 163 -20 197 -1 q 87 -38 128 -38 q 3 -12 33 -38 q -26 57 -26 12 q 10 138 -26 104 q 41 158 15 143 q 97 214 78 179 q 127 321 115 250 q 149 520 146 430 q 39 495 69 511 q -38 426 9 480 l -68 452 l 3 590 q 63 652 26 633 q 159 671 100 671 l 782 671 z "},"∫":{"ha":694,"x_min":-125,"x_max":819,"o":"m 494 827 l 494 -35 q 491 -144 494 -123 q 382 -297 476 -242 q 164 -345 300 -345 q -39 -300 37 -345 q -102 -240 -79 -277 q -125 -159 -125 -202 q -86 -65 -125 -103 q 7 -26 -48 -26 q 98 -64 60 -26 q 136 -145 136 -100 q 128 -185 136 -170 q 92 -230 120 -201 q 81 -254 81 -241 q 99 -284 81 -271 q 141 -298 117 -298 q 191 -272 176 -298 q 200 -204 200 -257 l 200 732 q 203 850 200 828 q 313 1002 219 947 q 530 1050 394 1050 q 734 1005 656 1050 q 797 945 774 983 q 819 865 819 907 q 781 770 819 808 q 687 732 743 732 q 596 768 635 732 q 558 850 558 805 q 566 890 558 874 q 602 935 574 906 q 613 958 613 947 q 595 989 613 976 q 553 1002 576 1002 q 493 931 493 1002 l 494 882 l 494 827 z "},"ª":{"ha":595,"x_min":40,"x_max":554,"o":"m 332 802 l 332 836 q 324 905 331 895 q 266 922 313 922 q 151 879 192 922 q 119 860 133 860 q 101 867 109 860 q 94 883 94 873 q 153 931 94 907 q 291 954 205 954 q 489 914 431 954 q 523 875 515 897 q 530 800 530 853 l 530 664 q 533 607 529 625 q 554 563 537 589 l 332 563 l 332 595 q 265 565 298 575 q 202 555 233 555 q 100 586 145 555 q 42 690 42 626 q 89 783 42 747 q 224 823 144 823 q 332 802 279 823 m 332 766 q 264 787 288 787 q 241 777 245 787 q 237 726 237 768 l 237 645 q 240 608 237 614 q 259 602 243 602 q 286 606 277 602 q 332 633 296 610 l 332 766 m 437 416 l 349 416 l 269 416 l 192 414 l 81 413 l 74 413 q 40 432 40 413 q 69 452 40 452 l 113 452 l 252 451 l 426 452 l 512 454 l 519 454 q 552 433 552 454 q 515 415 552 415 l 471 416 q 437 416 458 416 z "},"º":{"ha":595,"x_min":81,"x_max":515,"o":"m 296 954 q 454 892 390 954 q 514 752 514 836 q 462 625 514 680 q 298 555 397 555 q 130 627 194 555 q 81 755 81 683 q 150 899 81 842 q 296 954 214 952 m 290 922 l 290 587 l 302 587 q 429 636 376 587 q 481 753 481 684 q 417 882 481 832 q 303 922 365 922 l 290 922 m 418 416 l 343 416 l 274 416 l 210 414 l 115 413 l 109 413 q 81 432 81 413 q 106 452 81 452 l 142 452 l 260 451 l 408 452 l 481 454 l 487 454 q 515 433 515 454 q 484 415 515 415 l 446 416 q 418 416 435 416 z "},"Ω":{"ha":926,"x_min":-79,"x_max":1004,"o":"m 1004 254 l 952 0 l 519 0 l 519 149 q 609 256 582 200 q 659 534 659 357 q 619 768 659 687 q 463 876 567 876 q 302 753 353 876 q 268 524 268 669 q 328 235 268 339 q 408 149 354 191 l 408 0 l -28 0 l -79 254 l -46 254 q 18 168 -27 190 q 100 153 48 154 q 142 151 135 152 l 301 138 l 301 151 q 182 192 224 173 q 98 242 139 212 q -56 537 -56 357 q 31 771 -56 669 q 460 941 173 941 q 871 799 734 941 q 983 537 983 684 q 881 285 983 386 q 780 209 834 237 q 626 151 726 181 l 626 138 l 810 153 q 886 160 867 155 q 924 178 905 164 q 971 254 953 199 l 1004 254 z "},"æ":{"ha":1364,"x_min":33,"x_max":1337,"o":"m 879 347 l 879 159 q 888 59 880 75 q 955 28 902 28 q 1142 91 1051 28 q 1202 139 1181 118 q 1256 203 1224 160 q 1289 227 1273 227 q 1308 218 1299 227 q 1316 199 1316 210 q 1291 147 1316 178 q 1225 84 1266 116 q 945 -15 1095 -15 q 896 -11 922 -15 q 840 0 869 -7 l 558 0 l 558 73 q 441 7 502 29 q 316 -15 380 -15 q 130 49 210 -15 q 33 245 33 127 q 136 436 33 366 q 356 499 228 499 q 559 450 462 499 l 559 562 q 555 647 557 632 q 543 676 553 663 q 433 711 515 711 q 221 629 292 711 q 188 596 199 604 q 163 589 177 589 q 137 600 149 589 q 126 625 126 610 q 187 694 126 656 q 311 744 244 729 q 477 759 378 759 q 636 748 564 759 q 766 714 708 736 q 859 748 814 736 q 949 759 905 759 q 1133 712 1046 759 q 1272 587 1220 666 q 1337 362 1337 488 l 1337 347 l 1160 349 l 1123 349 l 970 347 l 879 347 m 1053 392 l 1053 528 q 1050 667 1053 650 q 961 718 1042 718 q 906 704 926 718 q 882 663 886 690 q 880 539 880 650 l 880 392 q 934 389 904 389 q 1053 392 1019 389 m 559 400 q 430 444 481 444 q 373 403 382 444 q 369 295 370 388 l 369 141 q 375 81 369 94 q 418 57 386 57 q 479 74 444 57 q 557 124 513 91 l 559 400 z "},"ø":{"ha":833,"x_min":24,"x_max":805,"o":"m 707 629 q 804 371 804 515 q 707 113 804 221 q 574 18 650 51 q 418 -15 500 -15 q 160 85 278 -15 l 87 12 q 46 -16 56 -16 q 31 -9 38 -16 q 24 5 24 -3 q 38 26 24 13 q 44 32 41 29 q 60 47 51 38 l 130 117 q 33 372 33 229 q 87 570 33 478 q 238 713 141 663 q 419 759 325 759 q 677 660 558 759 l 747 730 q 785 758 774 758 q 805 738 805 758 q 777 699 805 728 l 707 629 m 677 600 l 398 283 l 398 31 q 431 30 421 30 q 602 80 519 30 q 729 220 686 131 q 764 372 764 292 q 677 600 764 497 m 647 631 q 398 716 547 719 l 398 349 l 647 631 z "},"¿":{"ha":768,"x_min":46,"x_max":718,"o":"m 392 313 l 392 375 l 437 375 l 435 -168 q 602 -105 532 -163 q 661 3 661 -56 q 658 29 661 16 q 654 56 654 48 q 662 73 654 66 q 682 80 670 80 q 707 64 697 80 q 718 23 718 47 q 686 -75 718 -26 q 603 -159 655 -124 q 382 -216 517 -216 q 116 -124 208 -216 q 46 51 46 -54 q 102 208 46 142 q 211 285 149 262 q 392 313 273 308 m 414 759 q 561 718 504 759 q 617 612 617 677 q 566 504 617 545 q 417 458 509 458 q 272 500 328 458 q 216 609 216 542 q 260 709 216 669 q 414 759 315 758 z "},"¡":{"ha":533,"x_min":60,"x_max":473,"o":"m 252 363 l 294 363 q 323 261 307 294 q 422 103 340 228 q 473 -43 473 26 q 420 -165 473 -122 q 266 -216 360 -216 q 109 -159 169 -216 q 60 -43 60 -113 q 73 31 60 -3 q 121 116 86 64 q 210 258 186 212 q 252 363 234 303 m 262 759 q 411 717 353 759 q 469 610 469 675 q 413 499 469 541 q 274 457 358 457 q 125 500 183 457 q 67 610 67 543 q 120 717 67 676 q 262 759 174 758 z "},"¬":{"ha":694,"x_min":35,"x_max":659,"o":"m 368 0 l 368 248 l 35 248 l 35 371 l 659 371 l 659 0 l 368 0 z "},"√":{"ha":926,"x_min":23,"x_max":903,"o":"m 903 1143 l 903 1080 l 760 1080 l 503 0 l 258 0 l 142 475 l 23 475 l 23 538 l 340 538 l 450 70 l 702 1143 l 903 1143 z "},"ƒ":{"ha":898,"x_min":45,"x_max":852,"o":"m 640 607 l 732 608 l 791 609 q 840 583 840 609 q 791 559 840 559 l 724 559 l 634 559 l 581 130 q 525 -11 570 40 q 423 -80 482 -59 q 271 -101 363 -101 q 111 -76 177 -101 q 45 -15 45 -51 q 74 9 45 9 q 113 -13 86 9 q 175 -39 144 -39 q 228 -7 212 -39 q 250 112 238 13 l 301 559 l 265 559 l 176 557 q 137 563 147 557 q 126 581 126 568 q 175 608 126 608 l 227 608 l 307 607 l 321 731 q 412 881 332 826 q 648 942 500 942 q 794 919 735 942 q 852 862 852 897 q 825 836 852 836 q 783 864 810 836 q 741 879 768 879 q 687 854 705 879 q 661 775 668 830 l 640 607 z "},"≈":{"ha":694,"x_min":28,"x_max":667,"o":"m 618 737 l 667 713 q 571 594 631 653 q 513 555 543 566 q 439 544 484 544 q 286 581 397 544 q 189 597 235 597 q 113 576 143 597 q 90 558 106 572 q 75 545 85 553 l 28 569 q 129 694 87 661 q 245 739 185 739 q 374 713 284 739 q 507 685 467 685 q 618 737 565 685 m 618 494 l 667 469 q 571 351 631 409 q 513 312 542 323 q 439 300 484 300 q 286 336 397 300 q 189 353 235 353 q 113 332 143 353 l 90 314 l 75 302 l 28 326 q 129 450 88 418 q 245 495 185 495 q 374 469 284 495 q 507 442 467 442 q 618 494 564 442 z "},"∆":{"ha":926,"x_min":-40,"x_max":965,"o":"m 541 939 l 965 0 l -40 0 l 379 939 l 541 939 m 371 697 l 165 226 q 151 180 151 193 q 166 157 151 163 q 226 152 180 152 l 600 152 l 371 697 z "},"«":{"ha":486,"x_min":58,"x_max":425,"o":"m 274 256 l 274 511 l 382 619 q 393 630 391 627 q 415 646 408 646 q 425 622 425 646 q 418 595 425 604 q 407 583 415 591 q 396 573 399 576 l 307 483 l 425 372 l 425 115 l 274 256 m 58 256 l 58 511 l 166 619 q 177 630 175 627 q 199 646 193 646 q 209 622 209 646 q 202 595 209 604 q 191 583 199 591 q 180 573 184 576 l 91 483 l 210 372 l 210 115 l 58 256 z "},"»":{"ha":486,"x_min":60,"x_max":427,"o":"m 212 505 l 212 249 l 104 141 q 71 115 77 115 q 61 138 61 114 q 68 166 61 157 q 79 178 71 170 q 90 187 87 184 l 179 277 l 60 389 l 60 646 l 212 505 m 427 505 l 427 249 l 319 141 q 286 115 292 115 q 277 138 277 114 q 283 166 277 157 q 294 178 286 170 q 305 187 302 184 l 395 277 l 276 389 l 276 646 l 427 505 z "},"…":{"ha":1568,"x_min":62,"x_max":1507,"o":"m 262 281 q 407 241 352 281 q 462 134 462 201 q 406 22 462 65 q 262 -21 351 -21 q 94 41 150 -21 q 62 127 62 78 q 116 238 62 196 q 262 281 170 279 m 785 281 q 930 241 875 281 q 985 134 985 201 q 929 22 985 65 q 785 -21 873 -21 q 617 41 673 -21 q 585 127 585 78 q 639 238 585 196 q 785 281 693 279 m 1306 281 q 1452 241 1397 281 q 1507 134 1507 201 q 1451 22 1507 65 q 1307 -21 1396 -21 q 1139 41 1195 -21 q 1107 127 1107 78 q 1161 238 1107 196 q 1306 281 1215 279 z "},"À":{"ha":1084,"x_min":-9,"x_max":1102,"o":"m 559 981 l 1102 0 l 632 0 l 568 124 l 340 124 l 139 125 l 105 125 l 60 43 q 33 -4 41 5 q 14 -13 25 -13 q -9 7 -9 -13 q 4 40 -9 16 q 96 199 17 64 l 507 890 l 559 981 m 349 537 l 230 337 l 135 172 l 338 170 l 543 172 l 349 537 m 650 1001 l 492 1001 l 345 1187 l 584 1187 l 650 1001 z "},"Ã":{"ha":1084,"x_min":-9,"x_max":1102,"o":"m 559 981 l 1102 0 l 632 0 l 568 124 l 340 124 l 139 125 l 105 125 l 60 43 q 33 -4 41 5 q 14 -13 25 -13 q -9 7 -9 -13 q 4 40 -9 16 q 96 199 17 64 l 507 890 l 559 981 m 349 537 l 230 337 l 135 172 l 338 170 l 543 172 l 349 537 m 472 1202 l 762 1133 l 819 1184 q 842 1198 833 1198 q 856 1191 849 1198 q 863 1177 863 1185 q 847 1156 863 1171 l 676 991 l 380 1061 l 321 1008 q 296 995 307 995 q 282 1001 289 995 q 276 1015 276 1008 q 292 1039 276 1025 l 472 1202 z "},"Õ":{"ha":1053,"x_min":37,"x_max":1021,"o":"m 529 954 q 736 908 636 954 q 960 701 882 841 q 1021 458 1021 589 q 975 253 1021 352 q 757 28 905 105 q 529 -28 648 -28 q 290 36 403 -28 q 77 272 140 120 q 37 464 37 365 q 99 701 37 588 q 321 907 175 839 q 529 954 418 953 m 475 908 l 471 467 l 475 100 l 475 17 q 519 13 498 13 q 787 96 669 13 q 943 291 895 172 q 977 464 977 374 q 920 684 977 582 q 724 867 850 808 q 524 912 629 912 q 475 908 499 912 m 448 1201 l 738 1133 l 795 1183 q 818 1197 810 1197 q 832 1191 825 1197 q 839 1177 839 1184 q 823 1155 839 1170 l 652 991 l 357 1060 l 298 1007 q 273 994 283 994 q 259 1001 265 994 q 252 1014 252 1007 q 268 1038 252 1024 l 448 1201 z "},"Œ":{"ha":1539,"x_min":37,"x_max":1536,"o":"m 1105 630 l 1103 399 l 1105 44 l 1443 47 l 1495 49 q 1536 24 1536 49 q 1488 -1 1536 -1 l 1440 0 l 682 0 q 602 -22 630 -17 q 532 -28 573 -28 q 176 121 323 -28 q 68 288 104 192 q 37 463 37 372 q 116 731 37 609 q 328 911 194 852 q 522 954 424 954 q 604 947 563 954 q 687 926 646 940 l 1419 926 q 1471 922 1461 926 q 1480 902 1480 918 q 1446 877 1480 877 l 1417 878 l 1105 883 l 1105 673 l 1430 676 l 1457 677 q 1501 675 1495 676 q 1514 654 1514 671 q 1491 629 1514 633 q 1432 628 1483 628 l 1105 630 m 696 878 q 602 902 646 895 q 522 910 558 910 q 469 907 496 910 l 469 853 l 466 490 l 469 66 l 469 20 q 519 14 492 14 q 617 24 572 14 q 696 53 661 34 l 700 323 l 701 451 l 697 841 l 696 878 z "},"œ":{"ha":1309,"x_min":33,"x_max":1281,"o":"m 825 351 l 825 151 q 829 71 825 86 q 900 31 841 31 q 1063 79 982 31 q 1195 201 1146 128 q 1231 232 1215 232 q 1251 223 1242 232 q 1259 203 1259 214 q 1171 92 1259 160 q 1033 13 1106 41 q 893 -15 959 -15 q 767 8 829 -15 q 659 73 705 31 q 419 -15 541 -15 q 227 41 321 -15 q 78 198 130 97 q 33 378 33 286 q 99 589 33 491 q 251 720 157 674 q 418 759 332 759 q 654 675 541 759 q 767 738 705 718 q 900 759 828 759 q 1103 699 1009 759 q 1251 522 1203 636 q 1281 371 1281 447 l 1280 355 l 825 351 m 996 395 l 996 624 q 994 675 996 664 q 982 697 991 686 q 908 720 961 720 q 841 702 858 720 q 825 627 825 683 l 825 395 l 902 395 l 983 396 l 996 395 m 625 96 q 507 376 507 219 q 557 562 507 469 q 623 649 589 619 q 527 701 574 685 q 423 718 479 718 l 397 718 l 397 26 q 427 24 417 24 q 625 96 524 24 z "},"–":{"ha":899,"x_min":1,"x_max":899,"o":"m 774 357 l 94 355 l 44 355 q 1 379 1 355 q 43 406 1 406 l 92 404 l 332 401 l 802 406 l 856 406 q 899 380 899 406 q 854 355 899 355 l 774 357 z "},"—":{"ha":1456,"x_min":0,"x_max":1457,"o":"m 1333 357 l 94 355 l 43 355 q 0 379 0 355 q 43 406 0 406 l 91 405 l 440 401 l 1360 406 l 1413 406 q 1457 380 1457 406 q 1411 355 1457 355 l 1333 357 z "},"“":{"ha":1004,"x_min":60,"x_max":944,"o":"m 100 757 q 182 823 133 801 q 296 844 231 844 q 418 812 366 844 q 481 701 481 773 q 440 603 481 644 q 272 538 376 538 q 117 592 176 538 q 60 735 60 645 q 85 842 60 793 q 153 921 109 892 q 330 965 218 965 q 380 945 380 965 q 355 928 380 926 l 320 929 q 201 908 249 929 q 114 817 140 882 q 100 757 107 802 m 563 757 q 645 823 596 801 q 759 844 694 844 q 881 812 829 844 q 944 701 944 773 q 903 603 944 644 q 735 538 840 538 q 580 592 639 538 q 524 735 524 645 q 548 842 524 793 q 616 921 572 892 q 793 965 680 965 q 843 945 843 965 q 818 928 843 926 l 783 929 q 665 908 711 929 q 577 817 604 882 q 563 757 570 802 z "},"”":{"ha":1004,"x_min":60,"x_max":943,"o":"m 441 734 q 359 669 408 691 q 245 647 310 647 q 123 680 175 647 q 60 790 60 718 q 101 888 60 847 q 269 954 165 954 q 424 899 366 954 q 481 756 481 846 q 456 649 481 699 q 388 570 432 600 q 211 526 323 526 q 161 547 161 526 q 186 564 161 564 l 208 563 q 221 562 214 562 q 340 583 292 562 q 427 674 401 610 q 441 734 434 690 m 904 734 q 822 669 871 691 q 708 647 772 647 q 586 680 637 647 q 523 790 523 718 q 564 888 523 847 q 732 954 627 954 q 886 899 828 954 q 943 756 943 846 q 919 649 943 699 q 851 570 895 600 q 674 526 786 526 q 624 547 624 526 q 649 564 624 564 l 671 563 q 684 562 677 562 q 802 583 755 562 q 890 674 863 610 q 904 734 897 690 z "},"‘":{"ha":541,"x_min":60,"x_max":481,"o":"m 100 757 q 182 823 133 801 q 296 844 231 844 q 418 812 366 844 q 481 701 481 773 q 440 603 481 644 q 272 538 376 538 q 117 592 176 538 q 60 735 60 645 q 85 842 60 793 q 153 921 109 892 q 330 965 218 965 q 380 945 380 965 q 355 928 380 926 l 320 929 q 201 908 249 929 q 114 817 140 882 q 100 757 107 802 z "},"’":{"ha":541,"x_min":60,"x_max":481,"o":"m 441 734 q 359 669 408 691 q 245 647 310 647 q 123 680 175 647 q 60 790 60 718 q 100 888 60 847 q 269 954 164 954 q 424 899 365 954 q 481 756 481 846 q 456 649 481 699 q 388 570 432 600 q 211 526 323 526 q 161 547 161 526 q 186 564 161 564 l 208 563 q 221 562 214 562 q 340 583 292 562 q 427 674 400 610 q 441 734 433 690 z "},"÷":{"ha":898,"x_min":65,"x_max":833,"o":"m 449 745 q 545 720 509 745 q 581 652 581 694 q 545 580 581 608 q 450 553 508 553 q 355 579 391 553 q 318 647 318 605 q 354 718 318 691 q 449 745 389 745 m 450 369 q 547 343 511 369 q 583 275 583 317 q 546 204 583 231 q 451 176 509 176 q 356 202 393 176 q 319 271 319 229 q 355 341 319 315 q 450 369 391 368 m 450 436 l 228 434 l 193 433 l 108 433 q 65 458 65 433 q 108 486 65 486 l 156 485 l 446 482 l 743 485 l 791 486 q 833 458 833 486 q 791 433 833 433 l 705 433 l 671 434 l 450 436 z "},"◊":{"ha":926,"x_min":102,"x_max":824,"o":"m 463 962 l 824 463 l 463 -36 l 102 463 l 463 962 m 463 840 l 189 463 l 463 87 l 736 463 l 463 840 z "},"ÿ":{"ha":838,"x_min":-37,"x_max":866,"o":"m 595 403 q 788 711 727 606 q 815 753 810 747 q 831 759 821 759 q 855 749 844 759 q 866 726 866 739 q 854 701 866 715 q 607 340 757 568 l 488 158 q 386 23 426 64 q 315 -24 356 -6 q 236 -43 274 -43 q 175 -28 199 -43 q 151 9 151 -14 q 161 33 151 23 q 188 43 172 43 q 233 28 199 43 q 270 18 254 18 q 328 36 300 18 q 388 98 355 55 l 308 223 q -37 741 50 625 l 394 741 q 488 563 435 652 q 595 403 541 474 m 621 1014 q 716 988 680 1014 q 752 920 752 963 q 715 849 752 876 q 621 821 679 821 q 526 847 562 821 q 489 916 489 873 q 525 986 489 960 q 621 1014 560 1013 m 282 1014 q 378 988 342 1014 q 414 920 414 963 q 378 849 414 876 q 283 821 341 821 q 188 847 224 821 q 151 916 151 873 q 187 986 151 960 q 282 1014 222 1013 z "},"Ÿ":{"ha":1018,"x_min":-12,"x_max":1037,"o":"m 743 572 l 959 888 q 989 930 981 922 q 1010 939 997 939 q 1029 932 1021 939 q 1037 918 1037 926 q 1029 897 1037 909 q 1015 878 1023 888 l 994 848 l 442 73 l 420 43 q 383 -5 391 2 q 361 -13 375 -13 q 340 6 340 -13 q 359 39 340 16 l 514 250 l 495 275 q 204 662 289 553 q -12 926 119 771 l 479 926 l 743 572 m 727 1198 q 823 1173 787 1198 q 859 1105 859 1147 q 822 1033 859 1061 q 727 1006 785 1006 q 632 1032 669 1006 q 595 1100 595 1058 q 631 1171 595 1144 q 727 1198 667 1198 m 389 1198 q 485 1173 449 1198 q 521 1105 521 1147 q 484 1033 521 1061 q 389 1006 448 1006 q 294 1032 331 1006 q 258 1100 258 1058 q 293 1171 258 1144 q 389 1198 329 1198 z "},"∕":{"ha":105,"x_min":-197,"x_max":302,"o":"m 251 808 l -105 94 l -121 61 q -139 24 -136 34 q -175 -16 -156 -16 q -190 -10 -183 -16 q -197 5 -197 -3 q -177 50 -197 12 l -161 82 l -144 115 l 232 871 q 264 933 258 924 q 281 942 271 942 q 295 936 289 942 q 302 921 302 929 q 283 872 302 910 l 251 808 z "},"€":{"ha":897,"x_min":17,"x_max":901,"o":"m 504 20 q 709 84 626 20 q 851 258 792 148 q 879 283 864 283 q 901 264 901 283 q 852 172 901 250 q 713 34 802 94 q 518 -26 625 -26 q 247 77 366 -26 q 100 353 129 181 l 61 353 q 17 376 17 353 q 62 403 17 403 l 94 403 q 92 463 92 440 q 96 532 92 498 l 61 532 q 17 555 17 532 q 62 582 17 582 l 103 582 q 258 856 137 762 q 518 950 380 950 q 687 910 612 950 q 811 806 762 869 q 860 730 860 742 q 853 717 860 722 q 839 711 846 711 q 823 720 831 711 q 791 761 815 728 q 664 872 735 839 q 534 905 593 905 q 504 904 518 905 l 501 582 l 685 582 q 730 555 730 582 q 686 532 730 532 l 501 532 l 500 463 l 501 403 l 685 403 q 730 376 730 403 q 686 353 730 353 l 501 353 q 504 20 503 56 z "},"‹":{"ha":270,"x_min":58,"x_max":210,"o":"m 58 256 l 58 511 l 166 619 q 177 630 175 627 q 199 646 193 646 q 209 622 209 646 q 202 595 209 604 q 191 583 199 591 q 180 573 184 576 l 91 483 l 210 372 l 210 115 l 58 256 z "},"›":{"ha":270,"x_min":60,"x_max":212,"o":"m 212 505 l 212 249 l 104 141 q 71 115 77 115 q 61 138 61 114 q 68 166 61 157 q 79 178 71 170 q 90 187 87 184 l 179 277 l 60 389 l 60 646 l 212 505 z "},"":{"ha":1076,"x_min":-5,"x_max":997,"o":"m 437 701 l 435 497 l 434 245 l 437 27 l 437 0 l 90 0 l 90 23 l 92 133 l 93 371 l 90 681 l 90 701 l 78 701 l 23 699 q -5 722 -5 699 q 22 747 -5 747 l 56 744 l 95 744 q 119 833 104 801 q 164 895 134 865 q 406 979 249 979 q 543 956 484 979 q 602 903 602 933 q 592 883 602 892 q 571 875 583 875 q 545 890 557 875 q 519 916 528 910 q 498 922 511 922 q 450 883 464 922 q 435 745 435 844 l 498 745 q 515 745 504 745 q 537 746 528 746 q 565 722 565 746 q 535 697 565 697 q 482 699 521 697 q 437 701 460 701 m 818 978 q 997 884 997 978 q 950 813 997 839 q 817 788 903 788 q 647 884 647 788 q 818 978 647 977 m 994 741 l 994 721 l 992 615 l 991 451 l 989 201 l 991 61 l 993 0 l 644 0 l 648 250 l 650 470 l 648 663 l 647 741 l 994 741 z "},"":{"ha":1069,"x_min":-5,"x_max":991,"o":"m 437 701 l 435 497 l 434 245 l 437 27 l 437 0 l 90 0 l 90 23 l 92 133 l 93 371 l 90 681 l 90 701 l 78 701 l 23 699 q -5 722 -5 699 q 22 747 -5 747 l 56 744 l 95 744 q 119 833 104 801 q 164 895 134 865 q 406 979 249 979 q 543 956 484 979 q 602 903 602 933 q 592 883 602 892 q 571 875 583 875 q 545 890 557 875 q 519 916 528 910 q 498 922 511 922 q 450 883 464 922 q 435 745 435 844 l 498 745 q 515 745 504 745 q 537 746 528 746 q 565 722 565 746 q 535 697 565 697 q 482 699 521 697 q 437 701 460 701 m 990 926 l 991 891 l 989 652 l 989 549 l 988 437 l 987 361 l 990 26 l 990 0 l 644 0 l 644 32 l 646 140 l 646 335 l 648 591 l 647 728 l 645 880 l 646 926 l 990 926 z "},"‡":{"ha":898,"x_min":65,"x_max":833,"o":"m 260 667 l 159 666 l 109 666 q 65 690 65 666 q 107 717 65 717 l 156 716 l 260 715 l 259 801 l 258 926 l 641 926 l 642 891 l 640 801 l 639 715 l 743 716 l 791 717 q 833 690 833 717 q 790 666 833 666 l 740 666 l 638 667 l 637 556 l 637 432 l 638 290 l 740 290 l 790 290 q 833 266 833 290 q 791 239 833 239 l 743 241 l 639 241 l 640 63 l 642 -27 l 641 -62 l 258 -62 l 260 241 l 208 241 l 156 241 l 107 239 q 65 266 65 239 q 109 290 65 290 l 159 290 l 260 290 l 262 385 l 262 432 l 261 556 l 260 667 z "},"∙":{"ha":943,"x_min":272,"x_max":672,"o":"m 472 530 q 617 490 562 530 q 672 383 672 450 q 616 272 672 315 q 472 229 561 229 q 304 291 360 229 q 272 376 272 328 q 326 487 272 446 q 472 530 380 529 z "},"‚":{"ha":541,"x_min":60,"x_max":481,"o":"m 441 66 q 359 1 408 22 q 245 -21 311 -21 q 123 11 175 -21 q 60 121 60 50 q 101 220 60 178 q 269 285 165 285 q 424 231 366 285 q 481 87 481 178 q 456 -19 481 30 q 388 -98 432 -68 q 211 -142 323 -142 q 161 -121 161 -142 q 186 -104 161 -104 l 208 -106 l 221 -106 q 340 -85 292 -106 q 427 6 401 -58 q 441 66 434 22 z "},"„":{"ha":1004,"x_min":60,"x_max":943,"o":"m 441 66 q 359 1 408 22 q 245 -21 311 -21 q 123 11 175 -21 q 60 121 60 50 q 101 220 60 178 q 269 285 165 285 q 424 231 366 285 q 481 87 481 178 q 456 -19 481 30 q 388 -98 432 -68 q 211 -142 323 -142 q 161 -121 161 -142 q 186 -104 161 -104 l 208 -106 l 221 -106 q 340 -85 292 -106 q 427 6 401 -58 q 441 66 434 22 m 904 66 q 822 1 871 22 q 708 -21 773 -21 q 586 11 637 -21 q 523 121 523 50 q 564 220 523 178 q 732 285 627 285 q 886 231 828 285 q 943 87 943 178 q 919 -19 943 30 q 851 -98 895 -68 q 674 -142 786 -142 q 624 -121 624 -142 q 649 -104 624 -104 l 671 -106 l 684 -106 q 802 -85 755 -106 q 890 6 863 -58 q 904 66 897 22 z "},"‰":{"ha":1579,"x_min":33,"x_max":1552,"o":"m 260 939 q 404 884 342 939 q 484 685 484 815 q 416 500 484 570 q 259 433 352 433 q 94 511 160 433 q 33 688 33 583 q 97 867 33 800 q 260 939 164 937 m 249 899 l 249 473 l 260 473 q 380 515 332 473 q 444 689 444 573 q 397 840 444 783 q 269 899 347 899 q 249 899 262 899 m 734 808 l 378 94 l 362 61 q 345 24 348 34 q 309 -16 328 -16 q 294 -10 300 -16 q 287 5 287 -3 q 307 50 287 12 l 322 82 l 339 115 l 715 871 q 748 933 742 924 q 765 942 754 942 q 779 936 772 942 q 785 921 785 929 q 734 808 785 911 m 813 491 q 974 422 908 491 q 1040 233 1040 353 q 960 41 1040 111 q 818 -13 899 -13 q 723 8 769 -13 q 646 65 677 29 q 589 241 589 133 q 658 423 589 353 q 813 491 724 490 m 805 452 l 805 28 q 823 27 817 27 q 943 77 897 27 q 1000 241 1000 136 q 951 391 1000 336 q 892 435 928 418 q 823 452 857 452 q 805 452 817 452 m 1324 491 q 1485 422 1419 491 q 1552 233 1552 353 q 1471 41 1552 111 q 1329 -13 1410 -13 q 1234 8 1280 -13 q 1158 65 1188 29 q 1100 241 1100 133 q 1169 423 1100 353 q 1324 491 1235 490 m 1302 452 l 1302 28 q 1320 27 1314 27 q 1440 77 1394 27 q 1497 241 1497 136 q 1449 391 1497 336 q 1390 435 1426 418 q 1320 452 1354 452 q 1302 452 1314 452 z "},"Â":{"ha":1084,"x_min":-9,"x_max":1102,"o":"m 559 981 l 1102 0 l 632 0 l 568 124 l 340 124 l 139 125 l 105 125 l 60 43 q 33 -4 41 5 q 14 -13 25 -13 q -9 7 -9 -13 q 4 40 -9 16 q 96 199 17 64 l 507 890 l 559 981 m 349 537 l 230 337 l 135 172 l 338 170 l 543 172 l 349 537 m 832 1007 l 578 1007 l 479 1149 l 386 1038 q 336 999 353 999 q 318 1017 318 999 q 340 1052 318 1025 l 353 1066 l 459 1190 l 692 1190 l 832 1007 z "},"Ê":{"ha":930,"x_min":79,"x_max":927,"o":"m 491 629 q 490 553 490 597 l 490 512 l 494 44 l 724 47 l 887 49 q 927 24 927 49 q 907 1 927 4 q 850 0 902 1 l 80 0 l 81 35 l 81 262 l 84 505 l 79 926 l 798 926 q 852 924 846 926 q 868 901 868 920 q 838 877 868 877 l 833 877 l 494 882 l 491 671 l 565 671 l 802 675 l 854 675 q 892 671 883 675 q 901 652 901 666 q 857 625 901 625 l 803 627 l 491 629 m 745 1007 l 491 1007 l 393 1149 l 299 1038 q 250 999 267 999 q 231 1017 231 999 q 253 1052 231 1025 l 266 1066 l 372 1190 l 605 1190 l 745 1007 z "},"Á":{"ha":1084,"x_min":-9,"x_max":1102,"o":"m 559 981 l 1102 0 l 632 0 l 568 124 l 340 124 l 139 125 l 105 125 l 60 43 q 33 -4 41 5 q 14 -13 25 -13 q -9 7 -9 -13 q 4 40 -9 16 q 96 199 17 64 l 507 890 l 559 981 m 349 537 l 230 337 l 135 172 l 338 170 l 543 172 l 349 537 m 466 1001 l 532 1187 l 771 1187 l 625 1001 l 466 1001 z "},"Ë":{"ha":930,"x_min":79,"x_max":927,"o":"m 491 629 q 490 553 490 597 l 490 512 l 494 44 l 724 47 l 887 49 q 927 24 927 49 q 907 1 927 4 q 850 0 902 1 l 80 0 l 81 35 l 81 262 l 84 505 l 79 926 l 798 926 q 852 924 846 926 q 868 901 868 920 q 838 877 868 877 l 833 877 l 494 882 l 491 671 l 565 671 l 802 675 l 854 675 q 892 671 883 675 q 901 652 901 666 q 857 625 901 625 l 803 627 l 491 629 m 659 1198 q 754 1173 718 1198 q 790 1105 790 1147 q 753 1033 790 1061 q 659 1006 717 1006 q 564 1032 600 1006 q 527 1100 527 1058 q 563 1171 527 1144 q 659 1198 598 1198 m 320 1198 q 416 1173 380 1198 q 452 1105 452 1147 q 416 1033 452 1061 q 321 1006 379 1006 q 226 1032 262 1006 q 189 1100 189 1058 q 225 1171 189 1144 q 320 1198 260 1198 z "},"È":{"ha":930,"x_min":79,"x_max":927,"o":"m 491 629 q 490 553 490 597 l 490 512 l 494 44 l 724 47 l 887 49 q 927 24 927 49 q 907 1 927 4 q 850 0 902 1 l 80 0 l 81 35 l 81 262 l 84 505 l 79 926 l 798 926 q 852 924 846 926 q 868 901 868 920 q 838 877 868 877 l 833 877 l 494 882 l 491 671 l 565 671 l 802 675 l 854 675 q 892 671 883 675 q 901 652 901 666 q 857 625 901 625 l 803 627 l 491 629 m 599 1002 l 440 1002 l 294 1187 l 532 1187 l 599 1002 z "},"Í":{"ha":572,"x_min":79,"x_max":499,"o":"m 494 926 l 494 878 l 490 507 l 493 0 l 79 0 l 83 554 l 79 892 l 79 926 l 494 926 m 194 1002 l 260 1187 l 499 1187 l 353 1002 l 194 1002 z "},"Î":{"ha":572,"x_min":29,"x_max":543,"o":"m 494 926 l 494 878 l 490 507 l 493 0 l 79 0 l 83 554 l 79 892 l 79 926 l 494 926 m 543 1007 l 289 1007 l 191 1149 l 97 1038 q 47 999 64 999 q 29 1017 29 999 q 51 1052 29 1025 l 64 1066 l 170 1190 l 403 1190 l 543 1007 z "},"Ï":{"ha":572,"x_min":-13,"x_max":588,"o":"m 494 926 l 494 878 l 490 507 l 493 0 l 79 0 l 83 554 l 79 892 l 79 926 l 494 926 m 456 1198 q 552 1173 516 1198 q 588 1105 588 1147 q 551 1033 588 1061 q 456 1006 515 1006 q 361 1032 398 1006 q 325 1100 325 1058 q 360 1171 325 1144 q 456 1198 396 1198 m 118 1198 q 214 1173 178 1198 q 250 1105 250 1147 q 214 1033 250 1061 q 119 1006 177 1006 q 24 1032 60 1006 q -13 1100 -13 1058 q 23 1171 -13 1144 q 118 1198 58 1198 z "},"Ì":{"ha":572,"x_min":79,"x_max":494,"o":"m 494 926 l 494 878 l 490 507 l 493 0 l 79 0 l 83 554 l 79 892 l 79 926 l 494 926 m 390 1001 l 231 1001 l 85 1187 l 323 1187 l 390 1001 z "},"Ó":{"ha":1053,"x_min":37,"x_max":1021,"o":"m 529 954 q 736 908 636 954 q 960 701 882 841 q 1021 458 1021 589 q 975 253 1021 352 q 757 28 905 105 q 529 -28 648 -28 q 290 36 403 -28 q 77 272 140 120 q 37 464 37 365 q 99 701 37 588 q 321 907 175 839 q 529 954 418 953 m 475 908 l 471 467 l 475 100 l 475 17 q 519 13 498 13 q 787 96 669 13 q 943 291 895 172 q 977 464 977 374 q 920 684 977 582 q 724 867 850 808 q 524 912 629 912 q 475 908 499 912 m 412 1001 l 478 1187 l 717 1187 l 570 1001 l 412 1001 z "},"Ô":{"ha":1053,"x_min":37,"x_max":1021,"o":"m 529 954 q 736 908 636 954 q 960 701 882 841 q 1021 458 1021 589 q 975 253 1021 352 q 757 28 905 105 q 529 -28 648 -28 q 290 36 403 -28 q 77 272 140 120 q 37 464 37 365 q 99 701 37 588 q 321 907 175 839 q 529 954 418 953 m 475 908 l 471 467 l 475 100 l 475 17 q 519 13 498 13 q 787 96 669 13 q 943 291 895 172 q 977 464 977 374 q 920 684 977 582 q 724 867 850 808 q 524 912 629 912 q 475 908 499 912 m 793 1007 l 538 1007 l 440 1149 l 347 1038 q 297 999 314 999 q 279 1017 279 999 q 300 1052 279 1025 l 313 1066 l 420 1190 l 652 1190 l 793 1007 z "},"Ò":{"ha":1053,"x_min":37,"x_max":1021,"o":"m 529 954 q 736 908 636 954 q 960 701 882 841 q 1021 458 1021 589 q 975 253 1021 352 q 757 28 905 105 q 529 -28 648 -28 q 290 36 403 -28 q 77 272 140 120 q 37 464 37 365 q 99 701 37 588 q 321 907 175 839 q 529 954 418 953 m 475 908 l 471 467 l 475 100 l 475 17 q 519 13 498 13 q 787 96 669 13 q 943 291 895 172 q 977 464 977 374 q 920 684 977 582 q 724 867 850 808 q 524 912 629 912 q 475 908 499 912 m 633 1001 l 474 1001 l 328 1187 l 566 1187 l 633 1001 z "},"Ú":{"ha":1044,"x_min":79,"x_max":988,"o":"m 494 926 l 490 574 l 489 205 l 491 18 q 551 15 526 15 q 870 125 789 15 q 925 287 911 182 q 938 668 938 392 l 936 848 l 933 903 q 962 939 933 939 q 988 905 988 939 q 986 851 988 885 l 981 581 q 975 348 978 410 q 961 233 971 287 q 864 57 940 123 q 532 -28 767 -28 q 220 28 326 -28 q 103 172 138 71 q 85 269 87 219 q 81 570 82 318 l 79 926 l 494 926 m 463 1001 l 530 1187 l 768 1187 l 622 1001 l 463 1001 z "},"Û":{"ha":1044,"x_min":79,"x_max":988,"o":"m 494 926 l 490 574 l 489 205 l 491 18 q 551 15 526 15 q 870 125 789 15 q 925 287 911 182 q 938 668 938 392 l 936 848 l 933 903 q 962 939 933 939 q 988 905 988 939 q 986 851 988 885 l 981 581 q 975 348 978 410 q 961 233 971 287 q 864 57 940 123 q 532 -28 767 -28 q 220 28 326 -28 q 103 172 138 71 q 85 269 87 219 q 81 570 82 318 l 79 926 l 494 926 m 816 1007 l 562 1007 l 463 1149 l 370 1038 q 320 999 337 999 q 302 1017 302 999 q 323 1052 302 1025 l 336 1066 l 443 1190 l 675 1190 l 816 1007 z "},"Ù":{"ha":1044,"x_min":79,"x_max":988,"o":"m 494 926 l 490 574 l 489 205 l 491 18 q 551 15 526 15 q 870 125 789 15 q 925 287 911 182 q 938 668 938 392 l 936 848 l 933 903 q 962 939 933 939 q 988 905 988 939 q 986 851 988 885 l 981 581 q 975 348 978 410 q 961 233 971 287 q 864 57 940 123 q 532 -28 767 -28 q 220 28 326 -28 q 103 172 138 71 q 85 269 87 219 q 81 570 82 318 l 79 926 l 494 926 m 663 1001 l 504 1001 l 357 1187 l 596 1187 l 663 1001 z "},"ı":{"ha":507,"x_min":79,"x_max":428,"o":"m 428 741 l 428 721 l 427 615 l 425 451 l 423 201 l 426 61 l 427 0 l 79 0 l 82 250 l 84 470 l 83 586 l 81 715 l 81 741 l 428 741 z "},"ˆ":{"ha":694,"x_min":90,"x_max":604,"o":"m 604 823 l 350 823 l 252 964 l 158 853 q 109 814 125 814 q 90 833 90 814 q 112 867 90 840 l 125 882 l 231 1005 l 464 1005 l 604 823 z "},"˜":{"ha":694,"x_min":54,"x_max":641,"o":"m 250 1023 l 540 955 l 597 1006 q 620 1019 612 1019 q 634 1013 627 1019 q 641 999 641 1006 q 625 977 641 992 l 454 813 l 159 882 l 100 829 q 75 817 85 817 q 61 823 67 817 q 54 836 54 829 q 70 861 54 846 l 250 1023 z "},"ˉ":{"ha":694,"x_min":71,"x_max":625,"o":"m 496 880 l 330 878 l 165 875 l 117 873 l 109 873 q 71 907 71 873 q 105 942 71 942 l 153 941 l 316 939 l 481 943 l 579 945 l 587 945 q 625 909 625 945 q 583 877 625 877 l 532 879 q 496 880 519 880 z "},"˘":{"ha":694,"x_min":106,"x_max":589,"o":"m 528 968 l 537 995 q 551 1031 547 1025 q 566 1038 555 1038 q 589 1017 589 1038 q 577 968 589 1004 q 551 907 564 932 q 347 809 498 809 q 215 836 265 809 q 137 922 165 863 q 116 977 125 947 q 106 1019 106 1008 q 128 1038 106 1038 q 144 1031 139 1038 q 158 995 149 1024 l 167 968 l 528 968 z "},"˙":{"ha":694,"x_min":216,"x_max":479,"o":"m 347 1014 q 443 988 407 1014 q 479 920 479 963 q 442 849 479 876 q 347 821 406 821 q 252 847 289 821 q 216 916 216 873 q 251 986 216 960 q 347 1014 287 1013 z "},"˚":{"ha":694,"x_min":206,"x_max":488,"o":"m 347 1087 q 448 1047 408 1087 q 488 949 488 1007 q 446 853 488 892 q 344 814 405 814 q 245 852 283 814 q 206 950 206 890 q 246 1048 206 1009 q 347 1087 286 1086 m 316 865 q 339 860 329 862 q 355 859 349 859 q 417 886 391 859 q 444 951 444 914 q 417 1017 444 989 q 355 1044 389 1044 q 339 1042 349 1044 q 316 1036 329 1040 l 316 865 z "},"¸":{"ha":694,"x_min":218,"x_max":475,"o":"m 372 0 l 327 -96 q 352 -94 345 -94 q 475 -197 475 -94 q 437 -276 475 -247 q 335 -305 399 -305 q 245 -280 279 -305 q 218 -241 218 -260 q 224 -228 218 -234 q 237 -222 230 -222 q 251 -229 243 -222 q 291 -256 277 -250 q 322 -262 304 -262 q 336 -260 329 -262 q 352 -256 344 -258 l 352 -134 q 329 -131 337 -131 q 304 -136 318 -131 q 283 -140 291 -140 q 268 -125 268 -140 q 285 -83 268 -119 l 324 0 l 372 0 z "},"˝":{"ha":694,"x_min":140,"x_max":663,"o":"m 140 817 l 224 1002 l 418 1002 l 270 817 l 140 817 m 385 817 l 468 1002 l 663 1002 l 514 817 l 385 817 z "},"˛":{"ha":694,"x_min":538,"x_max":803,"o":"m 748 0 q 708 -16 722 -8 q 671 -47 695 -24 l 671 -200 q 699 -203 688 -203 q 760 -188 729 -203 q 783 -180 776 -180 q 803 -201 803 -180 q 769 -236 803 -221 q 690 -250 735 -250 q 578 -221 618 -250 q 538 -141 538 -193 q 665 0 538 -45 l 748 0 z "},"ˇ":{"ha":694,"x_min":90,"x_max":604,"o":"m 90 997 l 345 997 l 443 855 l 537 966 q 586 1005 569 1005 q 604 987 604 1005 q 583 952 604 979 l 570 938 l 464 814 l 231 814 l 90 997 z "},"¦":{"ha":694,"x_min":256,"x_max":439,"o":"m 256 926 l 439 926 l 439 415 l 256 415 l 256 926 m 256 213 l 439 213 l 439 -231 l 256 -231 l 256 213 z "},"­":{"ha":486,"x_min":0,"x_max":486,"o":"m 340 357 l 242 357 l 44 355 q 0 379 0 355 q 43 406 0 406 l 91 404 l 212 401 l 389 406 l 441 406 q 486 380 486 406 q 441 355 486 355 l 392 357 l 340 357 z "},"¯":{"ha":694,"x_min":-2,"x_max":697,"o":"m -2 1192 l 697 1192 l 697 1056 l -2 1056 l -2 1192 z "},"²":{"ha":609,"x_min":21,"x_max":570,"o":"m 350 405 l 356 406 q 525 412 475 406 q 552 414 543 414 q 570 396 570 414 q 524 370 570 370 l 21 370 q 267 670 136 492 q 380 859 380 823 q 361 892 380 881 q 304 903 342 903 q 153 859 217 903 q 109 813 125 840 q 93 760 93 786 q 122 693 93 732 q 127 680 127 687 q 120 666 127 672 q 105 660 114 660 q 70 690 86 660 q 53 755 53 720 q 76 833 53 795 q 140 895 100 870 q 323 940 212 940 q 475 911 411 940 q 544 855 519 892 q 570 774 570 819 q 515 630 570 715 q 396 463 463 549 l 350 405 z "},"³":{"ha":609,"x_min":24,"x_max":557,"o":"m 277 903 q 125 850 178 903 q 92 830 106 830 q 71 854 71 830 q 109 895 71 871 q 303 940 181 940 q 456 908 395 940 q 528 798 528 871 q 481 708 528 743 q 350 665 435 673 q 495 628 452 654 q 557 525 557 589 q 480 401 557 448 q 278 355 404 355 q 75 401 151 355 q 24 463 24 433 q 47 483 24 483 q 63 478 58 483 q 80 454 69 473 q 149 408 97 427 q 262 390 201 390 l 277 391 l 277 648 l 216 648 q 186 652 193 648 q 179 667 179 655 q 186 682 179 678 q 217 686 193 686 l 277 686 l 277 903 z "},"¹":{"ha":609,"x_min":102,"x_max":458,"o":"m 458 936 l 455 703 l 458 388 l 458 370 l 199 370 l 199 389 l 201 579 l 202 707 l 204 799 q 201 834 204 817 l 138 816 q 119 812 127 812 q 102 831 102 812 q 110 847 102 843 q 152 860 117 852 l 301 896 l 458 936 z "},"¼":{"ha":1272,"x_min":81,"x_max":1270,"o":"m 437 936 l 434 703 l 437 388 l 437 370 l 178 370 l 178 389 l 180 579 l 181 707 l 183 799 q 180 834 183 817 l 117 816 q 98 812 106 812 q 81 831 81 812 q 89 847 81 843 q 131 860 96 852 l 172 869 l 239 886 l 280 896 l 437 936 m 835 808 l 479 94 l 463 61 q 444 24 448 34 q 409 -16 427 -16 q 394 -10 401 -16 q 387 5 387 -3 q 407 50 387 12 l 422 82 l 439 115 l 815 871 q 848 933 842 924 q 865 942 854 942 q 879 936 873 942 q 886 921 886 929 q 867 872 886 910 l 848 836 l 835 808 m 1180 111 l 1180 0 l 927 0 l 928 60 l 929 104 l 929 109 l 884 109 l 783 108 l 758 108 q 712 130 712 108 q 732 161 712 142 l 768 197 l 1181 606 l 1180 565 l 1179 431 l 1179 277 l 1179 146 l 1238 150 l 1250 151 q 1270 132 1270 151 q 1262 114 1270 117 q 1221 111 1255 111 l 1180 111 m 929 146 l 929 303 l 770 146 q 839 145 802 145 l 929 146 z "},"½":{"ha":1272,"x_min":81,"x_max":1249,"o":"m 437 936 l 434 703 l 437 388 l 437 370 l 178 370 l 178 389 l 180 579 l 181 707 l 183 799 q 180 834 183 817 l 117 816 q 98 812 106 812 q 81 831 81 812 q 89 847 81 843 q 131 860 96 852 l 172 869 l 239 886 l 280 896 l 437 936 m 835 808 l 479 94 l 463 61 q 444 24 448 34 q 409 -16 427 -16 q 394 -10 401 -16 q 387 5 387 -3 q 407 50 387 12 l 422 82 l 439 115 l 815 871 q 848 933 842 924 q 865 942 854 942 q 879 936 873 942 q 886 921 886 929 q 867 872 886 910 l 848 836 l 835 808 m 1029 35 l 1035 35 q 1204 41 1154 35 q 1231 44 1221 44 q 1249 26 1249 44 q 1203 0 1249 0 l 700 0 q 947 300 814 121 q 1060 488 1060 452 q 1041 522 1060 511 q 983 533 1022 533 q 833 489 897 533 q 772 390 772 447 q 801 323 772 362 q 806 309 806 317 q 799 296 806 302 q 785 290 793 290 q 749 320 765 290 q 732 385 732 350 q 756 462 732 425 q 821 525 779 499 q 1002 570 892 570 q 1154 541 1090 570 q 1224 485 1198 522 q 1249 404 1249 448 q 1194 260 1249 345 q 1075 93 1144 182 l 1029 35 z "},"¾":{"ha":1272,"x_min":3,"x_max":1270,"o":"m 256 903 q 104 850 157 903 q 71 830 85 830 q 50 854 50 830 q 87 895 50 871 q 282 940 160 940 q 435 908 374 940 q 507 798 507 871 q 460 708 507 743 q 329 665 414 673 q 474 628 431 654 q 536 525 536 589 q 459 401 536 448 q 257 355 382 355 q 54 401 130 355 q 3 462 3 433 q 26 483 3 483 q 42 478 37 483 q 59 454 48 473 q 127 409 75 427 q 241 390 180 390 l 256 391 l 256 648 l 195 648 q 165 652 172 648 q 158 666 158 655 q 165 682 158 678 q 196 686 172 686 l 256 686 l 256 903 m 834 808 l 479 94 l 462 61 q 444 24 448 34 q 408 -16 427 -16 q 393 -10 400 -16 q 387 5 387 -3 q 406 50 387 12 l 422 82 l 439 115 l 815 871 q 848 933 842 924 q 865 942 854 942 q 879 936 873 942 q 885 921 885 929 q 834 808 885 910 m 1180 111 l 1180 0 l 926 0 l 927 60 l 928 104 l 928 109 l 884 109 l 783 108 l 758 108 q 711 130 711 108 q 731 161 711 142 l 767 197 l 1181 606 l 1180 565 l 1179 431 l 1178 277 l 1179 146 l 1238 150 l 1250 151 q 1270 132 1270 151 q 1262 114 1270 117 q 1221 111 1255 111 l 1180 111 m 928 146 l 928 303 l 770 146 q 838 145 802 145 l 928 146 z "},"Ð":{"ha":1062,"x_min":-16,"x_max":1029,"o":"m 98 926 l 454 926 q 664 912 594 926 q 945 726 838 879 q 1029 462 1029 606 q 943 193 1029 315 q 670 13 839 48 q 593 2 627 4 q 444 0 559 0 l 99 0 l 102 277 l 100 509 l 100 583 l 30 583 q -7 588 1 583 q -16 608 -16 593 q -7 628 -16 624 q 37 632 2 632 l 99 632 l 98 789 l 98 926 m 511 882 l 511 780 l 511 632 l 646 632 q 696 628 686 632 q 706 607 706 624 q 696 587 706 591 q 646 583 687 583 l 510 583 l 509 359 l 513 43 q 643 51 604 44 q 734 79 682 57 q 925 248 855 132 q 985 463 985 347 q 913 695 985 589 q 538 883 787 883 l 511 882 z "},"×":{"ha":898,"x_min":203,"x_max":696,"o":"m 484 466 l 638 312 q 688 261 681 270 q 696 241 696 252 q 675 220 696 220 q 652 229 663 220 q 606 275 642 237 l 449 431 q 370 353 409 388 l 292 275 q 246 229 257 237 q 224 220 235 220 q 209 226 215 220 q 203 241 203 233 q 210 261 203 252 q 260 312 217 270 l 415 465 l 224 654 q 203 689 203 675 q 224 711 203 711 q 246 702 235 711 q 292 656 257 694 l 449 500 l 528 578 l 606 656 q 653 702 642 694 q 675 711 663 711 q 696 690 696 711 q 689 669 696 678 q 638 618 682 661 l 484 466 z "},"Ý":{"ha":1018,"x_min":-12,"x_max":1037,"o":"m 743 572 l 959 888 q 989 930 981 922 q 1010 939 997 939 q 1029 932 1021 939 q 1037 918 1037 926 q 1029 897 1037 909 q 1015 878 1023 888 l 994 848 l 442 73 l 420 43 q 383 -5 391 2 q 361 -13 375 -13 q 340 6 340 -13 q 359 39 340 16 l 514 250 l 495 275 q 204 662 289 553 q -12 926 119 771 l 479 926 l 743 572 m 448 1001 l 515 1187 l 753 1187 l 607 1001 l 448 1001 z "},"Þ":{"ha":1058,"x_min":106,"x_max":1045,"o":"m 519 115 l 519 96 l 520 12 l 520 0 l 106 0 l 107 37 l 111 515 l 108 740 l 107 894 l 106 926 l 519 926 l 519 833 q 823 781 713 827 q 1003 621 942 732 q 1045 457 1045 545 q 1015 314 1045 381 q 928 199 984 247 q 648 104 815 104 q 519 115 602 104 m 520 789 l 520 743 l 517 333 l 519 161 q 652 147 571 147 q 922 256 817 147 q 1000 456 1000 336 q 928 656 1000 567 q 782 756 875 723 q 558 789 690 789 l 520 789 z "},"ð":{"ha":832,"x_min":33,"x_max":804,"o":"m 572 727 l 446 880 l 441 886 l 310 830 q 279 821 288 821 q 258 840 258 821 q 288 869 258 857 l 412 922 l 382 956 q 365 991 365 977 q 371 1003 365 998 q 385 1008 378 1008 q 418 983 395 1008 l 456 939 l 593 995 q 622 1003 614 1003 q 637 997 631 1003 q 643 983 643 991 q 612 954 643 967 l 484 903 l 611 747 l 654 693 q 749 569 726 605 q 804 372 804 476 q 712 119 804 228 q 566 14 652 50 q 419 -15 496 -15 q 189 61 291 -15 q 67 211 109 120 q 33 374 33 289 q 155 654 33 540 q 417 759 269 759 q 572 727 493 759 m 398 715 l 396 31 q 425 30 418 30 q 606 83 519 30 q 730 220 688 134 q 762 369 762 288 q 641 634 762 532 q 429 716 543 716 q 398 715 420 716 z "},"ý":{"ha":838,"x_min":-37,"x_max":866,"o":"m 595 403 q 788 711 727 606 q 815 753 810 747 q 831 759 821 759 q 855 749 844 759 q 866 726 866 739 q 854 701 866 715 q 607 340 757 568 l 488 158 q 386 23 426 64 q 315 -24 356 -6 q 236 -43 274 -43 q 175 -28 199 -43 q 151 9 151 -14 q 161 33 151 23 q 188 43 172 43 q 233 28 199 43 q 270 18 254 18 q 328 36 300 18 q 388 98 355 55 l 308 223 q -37 741 50 625 l 394 741 q 488 563 435 652 q 595 403 541 474 m 340 817 l 407 1002 l 646 1002 l 499 817 l 340 817 z "},"þ":{"ha":1013,"x_min":79,"x_max":981,"o":"m 79 926 l 425 926 l 423 652 q 549 734 492 710 q 674 759 606 759 q 902 654 814 759 q 981 416 981 561 q 890 163 981 262 q 682 72 807 72 q 552 99 617 72 q 422 181 487 127 l 422 157 l 423 68 l 425 -6 l 425 -31 l 79 -31 l 79 162 l 81 346 l 79 890 l 79 926 m 423 591 l 423 237 q 512 167 473 191 q 581 144 551 144 q 612 170 608 144 q 614 262 614 179 l 614 593 q 612 664 614 652 q 584 692 608 692 q 510 665 553 692 q 423 591 467 637 z "},"Š":{"ha":829,"x_min":46,"x_max":788,"o":"m 70 157 q 98 139 82 157 q 223 50 149 83 q 368 16 296 16 q 448 64 448 16 q 420 133 448 95 q 287 285 392 172 q 111 497 155 428 q 52 671 52 589 q 163 876 52 796 q 433 954 273 954 q 638 908 545 954 q 699 867 673 890 q 724 829 724 844 q 717 815 724 821 q 703 808 710 808 q 669 829 691 808 q 572 887 632 864 q 458 909 513 909 q 402 895 424 909 q 381 857 381 880 q 408 789 381 829 q 497 683 434 749 q 741 397 696 471 q 788 246 788 319 q 755 130 788 184 q 663 39 722 75 q 388 -28 550 -28 q 125 50 239 -28 q 46 134 46 104 q 53 150 46 143 q 70 157 60 157 m 143 1183 l 397 1183 l 496 1041 l 590 1152 q 639 1191 622 1191 q 657 1173 657 1191 q 635 1138 657 1165 l 623 1124 l 517 1000 l 283 1000 l 143 1183 z "},"š":{"ha":668,"x_min":38,"x_max":635,"o":"m 66 125 q 101 105 80 125 q 197 51 135 73 q 314 28 260 28 q 352 36 339 28 q 364 61 364 45 q 347 100 364 77 q 270 187 330 123 q 81 407 124 343 q 38 528 38 470 q 67 626 38 579 q 150 705 97 672 q 351 759 237 759 q 527 724 434 759 q 600 663 600 696 q 591 645 600 653 q 572 637 583 637 q 524 662 559 637 q 367 713 452 713 q 322 704 337 713 q 307 675 307 694 q 335 616 307 652 q 449 497 363 581 q 556 390 533 415 q 600 331 578 364 q 635 208 635 274 q 534 39 635 103 q 331 -15 452 -15 q 93 45 197 -15 q 51 75 62 63 q 40 100 40 86 q 66 125 40 125 m 73 997 l 327 997 l 425 855 l 519 966 q 568 1005 551 1005 q 587 987 587 1005 q 565 952 587 979 l 553 938 l 446 814 l 213 814 l 73 997 z "},"¤":{"ha":926,"x_min":103,"x_max":823,"o":"m 108 158 l 229 283 q 153 484 153 374 q 229 684 153 591 l 103 808 l 134 839 l 258 715 q 463 793 352 793 q 666 715 574 793 l 791 839 l 823 808 l 698 684 q 773 483 773 591 q 698 283 773 374 l 823 158 l 792 127 l 667 252 q 465 176 575 176 q 262 252 357 176 l 138 127 l 108 158 m 439 220 l 464 220 q 648 298 570 220 q 725 484 725 374 q 648 671 725 594 q 464 750 572 750 q 439 749 457 750 l 439 220 z "}}}
